<svg xmlns="http://www.w3.org/2000/svg" viewBox="0 0 750 500"><g id="freepik--background-complete--inject-17"><path d="M518.69,88c8.95,0,159.57,1,169,.69.68,0,1-1,.37-1.35-6-3-12.73-2.36-18.93-4.45-3.65-1.23-5.89-3.62-8.42-6.35a17.51,17.51,0,0,0-7.84-5.12,16.57,16.57,0,0,0-8.53-.27c-3.06.73-5.71,2.48-8.63,3.58-7.24,2.73-14.27.14-19.43-5.22-4.26-4.41-8.45-8.57-14.24-10.95-4.85-2-10.24-2.4-15.09-.21-5.53,2.5-9.32,7.54-14.51,10.57-6.15,3.59-13.51,2.74-20.3,3.83s-12,6.8-18,10.1a12.67,12.67,0,0,1-6.5,2,37.92,37.92,0,0,1-4-.56c-2-.25-4-.19-5.38,1.52C518,86.18,518.1,88,518.69,88Z" style="fill:#ebebeb"></path><path d="M61.93,72.22c6.53,0,116.5.72,123.41.5a.54.54,0,0,0,.27-1c-4.36-2.15-9.3-1.72-13.83-3.25-2.66-.89-4.3-2.64-6.15-4.63a12.71,12.71,0,0,0-5.72-3.74,12.08,12.08,0,0,0-6.23-.19c-2.23.53-4.17,1.8-6.29,2.61-5.29,2-10.42.1-14.19-3.81-3.11-3.22-6.17-6.26-10.4-8a13.85,13.85,0,0,0-11-.15c-4,1.83-6.8,5.5-10.59,7.71-4.49,2.63-9.86,2-14.82,2.8s-8.77,5-13.12,7.37a9.15,9.15,0,0,1-4.74,1.47,28.27,28.27,0,0,1-2.89-.4c-1.5-.19-2.92-.15-3.93,1.1C61.45,70.93,61.5,72.22,61.93,72.22Z" style="fill:#ebebeb"></path><path d="M108.34,173.78c6.53,0,116.5.72,123.41.5.49,0,.76-.74.27-1-4.36-2.16-9.3-1.72-13.83-3.25-2.66-.9-4.3-2.64-6.15-4.63a12.63,12.63,0,0,0-5.72-3.74,12.19,12.19,0,0,0-6.23-.2c-2.23.54-4.17,1.81-6.3,2.62-5.28,2-10.41.1-14.18-3.81-3.11-3.22-6.17-6.26-10.4-8a13.85,13.85,0,0,0-11-.15c-4,1.83-6.8,5.5-10.59,7.71-4.49,2.63-9.86,2-14.82,2.8s-8.77,5-13.12,7.37a9.15,9.15,0,0,1-4.74,1.47,25.77,25.77,0,0,1-2.89-.41c-1.5-.18-2.92-.14-3.93,1.11C107.86,172.49,107.91,173.78,108.34,173.78Z" style="fill:#ebebeb"></path><path d="M519.8,162.14c6.53,0,116.5.73,123.41.51.5,0,.76-.75.27-1-4.36-2.16-9.3-1.73-13.83-3.25-2.66-.9-4.3-2.64-6.14-4.64a12.79,12.79,0,0,0-5.73-3.74,12.08,12.08,0,0,0-6.23-.19c-2.23.53-4.17,1.81-6.29,2.61-5.29,2-10.42.1-14.19-3.81-3.11-3.22-6.17-6.26-10.4-8a13.81,13.81,0,0,0-11-.16c-4,1.83-6.8,5.51-10.59,7.72-4.49,2.62-9.86,2-14.82,2.79s-8.77,5-13.12,7.38a9.34,9.34,0,0,1-4.74,1.47c-1,0-1.93-.29-2.89-.41-1.5-.18-2.92-.14-3.93,1.11C519.32,160.85,519.37,162.14,519.8,162.14Z" style="fill:#ebebeb"></path><path d="M191.81,99.78c.12.37,173.31,0,171.13,0-1,0,1.51-1.49.54-2-5.64-2.8-11.81-2.88-18-3.44-3.58-.33-7.26-.85-10.48-2.54s-5.3-4.68-7.62-7.42A32.56,32.56,0,0,0,297.86,73.2c-12.32,1.93-22,11.31-34.36,13-7.41,1-14.42-1.83-21.66-2.84-6-.83-10.93.33-16.27,3-3.9,1.94-7.51,3.57-11.93,3.87-3.39.24-6.8-.15-10.19-.18a22.88,22.88,0,0,0-15,6C187.9,96.54,186.15,99.78,191.81,99.78Z" style="fill:#ebebeb"></path><rect x="209.1" y="121.98" width="60.94" height="319.45" transform="translate(479.14 563.42) rotate(180)" style="fill:#dbdbdb"></rect><rect x="248.73" y="132.36" width="11.85" height="12.2" transform="translate(509.31 276.92) rotate(180)" style="fill:#ebebeb"></rect><rect x="233.58" y="132.36" width="11.85" height="12.2" transform="translate(479 276.92) rotate(180)" style="fill:#ebebeb"></rect><rect x="248.73" y="153.07" width="11.85" height="12.2" transform="translate(509.31 318.34) rotate(180)" style="fill:#ebebeb"></rect><rect x="233.58" y="153.07" width="11.85" height="12.2" transform="translate(479 318.34) rotate(180)" style="fill:#ebebeb"></rect><rect x="248.73" y="173.78" width="11.85" height="12.2" transform="translate(509.31 359.76) rotate(180)" style="fill:#ebebeb"></rect><rect x="233.58" y="173.78" width="11.85" height="12.2" transform="translate(479 359.76) rotate(180)" style="fill:#ebebeb"></rect><rect x="248.73" y="194.49" width="11.85" height="12.2" transform="translate(509.31 401.17) rotate(180)" style="fill:#ebebeb"></rect><rect x="233.58" y="194.49" width="11.85" height="12.2" transform="translate(479 401.17) rotate(180)" style="fill:#ebebeb"></rect><rect x="248.73" y="215.2" width="11.85" height="12.2" transform="translate(509.31 442.59) rotate(180)" style="fill:#ebebeb"></rect><rect x="233.58" y="215.2" width="11.85" height="12.2" transform="translate(479 442.59) rotate(180)" style="fill:#ebebeb"></rect><rect x="248.73" y="235.91" width="11.85" height="12.2" transform="translate(509.31 484.01) rotate(180)" style="fill:#ebebeb"></rect><rect x="233.58" y="235.91" width="11.85" height="12.2" transform="translate(479 484.01) rotate(180)" style="fill:#ebebeb"></rect><rect x="248.73" y="256.61" width="11.85" height="12.2" transform="translate(509.31 525.43) rotate(180)" style="fill:#ebebeb"></rect><rect x="233.58" y="256.61" width="11.85" height="12.2" transform="translate(479 525.43) rotate(180)" style="fill:#ebebeb"></rect><rect x="248.73" y="277.32" width="11.85" height="12.2" transform="translate(509.31 566.84) rotate(180)" style="fill:#ebebeb"></rect><rect x="233.58" y="277.32" width="11.85" height="12.2" transform="translate(479 566.84) rotate(180)" style="fill:#ebebeb"></rect><rect x="248.73" y="298.03" width="11.85" height="12.2" transform="translate(509.31 608.26) rotate(180)" style="fill:#ebebeb"></rect><rect x="233.58" y="298.03" width="11.85" height="12.2" transform="translate(479 608.26) rotate(180)" style="fill:#ebebeb"></rect><rect x="248.73" y="318.74" width="11.85" height="12.2" transform="translate(509.31 649.68) rotate(180)" style="fill:#ebebeb"></rect><rect x="233.58" y="318.74" width="11.85" height="12.2" transform="translate(479 649.68) rotate(180)" style="fill:#ebebeb"></rect><rect x="248.73" y="339.45" width="11.85" height="12.2" transform="translate(509.31 691.1) rotate(180)" style="fill:#ebebeb"></rect><rect x="233.58" y="339.45" width="11.85" height="12.2" transform="translate(479 691.1) rotate(180)" style="fill:#ebebeb"></rect><rect x="248.73" y="360.16" width="11.85" height="12.2" transform="translate(509.31 732.52) rotate(180)" style="fill:#ebebeb"></rect><rect x="233.58" y="360.16" width="11.85" height="12.2" transform="translate(479 732.52) rotate(180)" style="fill:#ebebeb"></rect><rect x="248.73" y="380.87" width="11.85" height="12.2" transform="translate(509.31 773.93) rotate(180)" style="fill:#ebebeb"></rect><rect x="233.58" y="380.87" width="11.85" height="12.2" transform="translate(479 773.93) rotate(180)" style="fill:#ebebeb"></rect><rect x="248.73" y="401.58" width="11.85" height="12.2" transform="translate(509.31 815.35) rotate(180)" style="fill:#ebebeb"></rect><rect x="218.56" y="401.58" width="11.85" height="12.2" style="fill:#ebebeb"></rect><rect x="218.56" y="380.87" width="11.85" height="12.2" style="fill:#ebebeb"></rect><rect x="218.56" y="360.16" width="11.85" height="12.2" style="fill:#ebebeb"></rect><rect x="218.56" y="339.45" width="11.85" height="12.2" style="fill:#ebebeb"></rect><rect x="218.56" y="318.74" width="11.85" height="12.2" style="fill:#ebebeb"></rect><rect x="218.56" y="298.03" width="11.85" height="12.2" style="fill:#ebebeb"></rect><rect x="218.56" y="277.32" width="11.85" height="12.2" style="fill:#ebebeb"></rect><rect x="218.56" y="256.61" width="11.85" height="12.2" style="fill:#ebebeb"></rect><rect x="218.56" y="235.91" width="11.85" height="12.2" style="fill:#ebebeb"></rect><rect x="218.56" y="215.2" width="11.85" height="12.2" style="fill:#ebebeb"></rect><rect x="218.56" y="194.49" width="11.85" height="12.2" style="fill:#ebebeb"></rect><rect x="218.56" y="173.78" width="11.85" height="12.2" style="fill:#ebebeb"></rect><rect x="218.56" y="153.07" width="11.85" height="12.2" style="fill:#ebebeb"></rect><rect x="218.56" y="132.36" width="11.85" height="12.2" style="fill:#ebebeb"></rect><rect x="233.58" y="401.58" width="11.85" height="12.2" transform="translate(479 815.35) rotate(180)" style="fill:#ebebeb"></rect><rect x="161.05" y="121.98" width="48.05" height="319.45" transform="translate(370.15 563.42) rotate(180)" style="fill:#a6a6a6"></rect><rect x="166" y="401.58" width="9.78" height="12.2" style="fill:#c7c7c7"></rect><rect x="178.52" y="401.58" width="9.78" height="12.2" style="fill:#c7c7c7"></rect><rect x="166" y="380.87" width="9.78" height="12.2" style="fill:#c7c7c7"></rect><rect x="178.52" y="380.87" width="9.78" height="12.2" style="fill:#c7c7c7"></rect><rect x="166" y="360.16" width="9.78" height="12.2" style="fill:#c7c7c7"></rect><rect x="178.52" y="360.16" width="9.78" height="12.2" style="fill:#c7c7c7"></rect><rect x="166" y="339.45" width="9.78" height="12.2" style="fill:#c7c7c7"></rect><rect x="178.52" y="339.45" width="9.78" height="12.2" style="fill:#c7c7c7"></rect><rect x="166" y="318.74" width="9.78" height="12.2" style="fill:#c7c7c7"></rect><rect x="178.52" y="318.74" width="9.78" height="12.2" style="fill:#c7c7c7"></rect><rect x="166" y="298.03" width="9.78" height="12.2" style="fill:#c7c7c7"></rect><rect x="178.52" y="298.03" width="9.78" height="12.2" style="fill:#c7c7c7"></rect><rect x="166" y="277.32" width="9.78" height="12.2" style="fill:#c7c7c7"></rect><rect x="178.52" y="277.32" width="9.78" height="12.2" style="fill:#c7c7c7"></rect><rect x="166" y="256.61" width="9.78" height="12.2" style="fill:#c7c7c7"></rect><rect x="178.52" y="256.61" width="9.78" height="12.2" style="fill:#c7c7c7"></rect><rect x="166" y="235.91" width="9.78" height="12.2" style="fill:#c7c7c7"></rect><rect x="178.52" y="235.91" width="9.78" height="12.2" style="fill:#c7c7c7"></rect><rect x="166" y="215.2" width="9.78" height="12.2" style="fill:#c7c7c7"></rect><rect x="178.52" y="215.2" width="9.78" height="12.2" style="fill:#c7c7c7"></rect><rect x="166" y="194.49" width="9.78" height="12.2" style="fill:#c7c7c7"></rect><rect x="178.52" y="194.49" width="9.78" height="12.2" style="fill:#c7c7c7"></rect><rect x="166" y="173.78" width="9.78" height="12.2" style="fill:#c7c7c7"></rect><rect x="178.52" y="173.78" width="9.78" height="12.2" style="fill:#c7c7c7"></rect><rect x="166" y="153.07" width="9.78" height="12.2" style="fill:#c7c7c7"></rect><rect x="178.52" y="153.07" width="9.78" height="12.2" style="fill:#c7c7c7"></rect><rect x="166" y="132.36" width="9.78" height="12.2" style="fill:#c7c7c7"></rect><rect x="190.92" y="132.36" width="9.78" height="12.2" transform="translate(391.63 276.92) rotate(180)" style="fill:#c7c7c7"></rect><rect x="190.92" y="153.07" width="9.78" height="12.2" transform="translate(391.63 318.34) rotate(180)" style="fill:#c7c7c7"></rect><rect x="190.92" y="173.78" width="9.78" height="12.2" transform="translate(391.63 359.76) rotate(180)" style="fill:#c7c7c7"></rect><rect x="190.92" y="194.49" width="9.78" height="12.2" transform="translate(391.63 401.17) rotate(180)" style="fill:#c7c7c7"></rect><rect x="190.92" y="215.2" width="9.78" height="12.2" transform="translate(391.63 442.59) rotate(180)" style="fill:#c7c7c7"></rect><rect x="190.92" y="235.91" width="9.78" height="12.2" transform="translate(391.63 484.01) rotate(180)" style="fill:#c7c7c7"></rect><rect x="190.92" y="256.61" width="9.78" height="12.2" transform="translate(391.63 525.43) rotate(180)" style="fill:#c7c7c7"></rect><rect x="190.92" y="277.32" width="9.78" height="12.2" transform="translate(391.63 566.84) rotate(180)" style="fill:#c7c7c7"></rect><rect x="190.92" y="298.03" width="9.78" height="12.2" transform="translate(391.63 608.26) rotate(180)" style="fill:#c7c7c7"></rect><rect x="190.92" y="318.74" width="9.78" height="12.2" transform="translate(391.63 649.68) rotate(180)" style="fill:#c7c7c7"></rect><rect x="190.92" y="339.45" width="9.78" height="12.2" transform="translate(391.63 691.1) rotate(180)" style="fill:#c7c7c7"></rect><rect x="190.92" y="360.16" width="9.78" height="12.2" transform="translate(391.63 732.52) rotate(180)" style="fill:#c7c7c7"></rect><rect x="190.92" y="380.87" width="9.78" height="12.2" transform="translate(391.63 773.93) rotate(180)" style="fill:#c7c7c7"></rect><rect x="190.92" y="401.58" width="9.78" height="12.2" transform="translate(391.63 815.35) rotate(180)" style="fill:#c7c7c7"></rect><rect x="178.52" y="132.36" width="9.78" height="12.2" style="fill:#c7c7c7"></rect><rect x="532.27" y="123.97" width="67.98" height="317.47" transform="translate(1132.52 565.4) rotate(180)" style="fill:#ebebeb"></rect><rect x="532.27" y="117.02" width="69.62" height="6.95" transform="translate(1134.16 240.98) rotate(180)" style="fill:#c7c7c7"></rect><rect x="587.22" y="134.21" width="6.89" height="307.22" transform="translate(1181.32 575.65) rotate(180)" style="fill:#fff"></rect><rect x="575.02" y="134.21" width="6.89" height="307.22" transform="translate(1156.92 575.65) rotate(180)" style="fill:#fff"></rect><rect x="562.82" y="134.21" width="6.89" height="307.22" transform="translate(1132.52 575.65) rotate(180)" style="fill:#fff"></rect><rect x="550.62" y="134.21" width="6.89" height="307.22" transform="translate(1108.12 575.65) rotate(180)" style="fill:#fff"></rect><rect x="538.42" y="134.21" width="6.89" height="307.22" transform="translate(1083.72 575.65) rotate(180)" style="fill:#fff"></rect><rect x="587.22" y="142.99" width="6.89" height="13.72" transform="translate(1181.32 299.71) rotate(180)" style="fill:#ebebeb"></rect><rect x="575.02" y="142.99" width="6.89" height="13.72" transform="translate(1156.92 299.71) rotate(180)" style="fill:#ebebeb"></rect><rect x="562.82" y="142.99" width="6.89" height="13.72" transform="translate(1132.52 299.71) rotate(180)" style="fill:#ebebeb"></rect><rect x="550.62" y="142.99" width="6.89" height="13.72" transform="translate(1108.12 299.71) rotate(180)" style="fill:#ebebeb"></rect><rect x="538.42" y="142.99" width="6.89" height="13.72" transform="translate(1083.72 299.71) rotate(180)" style="fill:#ebebeb"></rect><rect x="587.22" y="165.29" width="6.89" height="13.72" transform="translate(1181.32 344.31) rotate(180)" style="fill:#ebebeb"></rect><rect x="575.02" y="165.29" width="6.89" height="13.72" transform="translate(1156.92 344.31) rotate(180)" style="fill:#ebebeb"></rect><rect x="562.82" y="165.29" width="6.89" height="13.72" transform="translate(1132.52 344.31) rotate(180)" style="fill:#ebebeb"></rect><rect x="550.62" y="165.29" width="6.89" height="13.72" transform="translate(1108.12 344.31) rotate(180)" style="fill:#ebebeb"></rect><rect x="538.42" y="165.29" width="6.89" height="13.72" transform="translate(1083.72 344.31) rotate(180)" style="fill:#ebebeb"></rect><rect x="587.22" y="187.59" width="6.89" height="13.72" transform="translate(1181.32 388.9) rotate(180)" style="fill:#ebebeb"></rect><rect x="575.02" y="187.59" width="6.89" height="13.72" transform="translate(1156.92 388.9) rotate(180)" style="fill:#ebebeb"></rect><rect x="562.82" y="187.59" width="6.89" height="13.72" transform="translate(1132.52 388.9) rotate(180)" style="fill:#ebebeb"></rect><rect x="550.62" y="187.59" width="6.89" height="13.72" transform="translate(1108.12 388.9) rotate(180)" style="fill:#ebebeb"></rect><rect x="538.42" y="187.59" width="6.89" height="13.72" transform="translate(1083.72 388.9) rotate(180)" style="fill:#ebebeb"></rect><rect x="587.22" y="209.89" width="6.89" height="13.72" transform="translate(1181.32 433.5) rotate(180)" style="fill:#ebebeb"></rect><rect x="575.02" y="209.89" width="6.89" height="13.72" transform="translate(1156.92 433.5) rotate(180)" style="fill:#ebebeb"></rect><rect x="562.82" y="209.89" width="6.89" height="13.72" transform="translate(1132.52 433.5) rotate(180)" style="fill:#ebebeb"></rect><rect x="550.62" y="209.89" width="6.89" height="13.72" transform="translate(1108.12 433.5) rotate(180)" style="fill:#ebebeb"></rect><rect x="538.42" y="209.89" width="6.89" height="13.72" transform="translate(1083.72 433.5) rotate(180)" style="fill:#ebebeb"></rect><rect x="587.22" y="232.19" width="6.89" height="13.72" transform="translate(1181.32 478.1) rotate(180)" style="fill:#ebebeb"></rect><rect x="575.02" y="232.19" width="6.89" height="13.72" transform="translate(1156.92 478.1) rotate(180)" style="fill:#ebebeb"></rect><rect x="562.82" y="232.19" width="6.89" height="13.72" transform="translate(1132.52 478.1) rotate(180)" style="fill:#ebebeb"></rect><rect x="550.62" y="232.19" width="6.89" height="13.72" transform="translate(1108.12 478.1) rotate(180)" style="fill:#ebebeb"></rect><rect x="538.42" y="232.19" width="6.89" height="13.72" transform="translate(1083.72 478.1) rotate(180)" style="fill:#ebebeb"></rect><rect x="587.22" y="254.49" width="6.89" height="13.72" transform="translate(1181.32 522.7) rotate(180)" style="fill:#ebebeb"></rect><rect x="575.02" y="254.49" width="6.89" height="13.72" transform="translate(1156.92 522.7) rotate(180)" style="fill:#ebebeb"></rect><rect x="562.82" y="254.49" width="6.89" height="13.72" transform="translate(1132.52 522.7) rotate(180)" style="fill:#ebebeb"></rect><rect x="550.62" y="254.49" width="6.89" height="13.72" transform="translate(1108.12 522.7) rotate(180)" style="fill:#ebebeb"></rect><rect x="538.42" y="254.49" width="6.89" height="13.72" transform="translate(1083.72 522.7) rotate(180)" style="fill:#ebebeb"></rect><rect x="587.22" y="276.79" width="6.89" height="13.72" transform="translate(1181.32 567.3) rotate(180)" style="fill:#ebebeb"></rect><rect x="575.02" y="276.79" width="6.89" height="13.72" transform="translate(1156.92 567.3) rotate(180)" style="fill:#ebebeb"></rect><rect x="562.82" y="276.79" width="6.89" height="13.72" transform="translate(1132.52 567.3) rotate(180)" style="fill:#ebebeb"></rect><rect x="550.62" y="276.79" width="6.89" height="13.72" transform="translate(1108.12 567.3) rotate(180)" style="fill:#ebebeb"></rect><rect x="538.42" y="276.79" width="6.89" height="13.72" transform="translate(1083.72 567.3) rotate(180)" style="fill:#ebebeb"></rect><rect x="587.22" y="299.09" width="6.89" height="13.72" transform="translate(1181.32 611.9) rotate(180)" style="fill:#ebebeb"></rect><rect x="575.02" y="299.09" width="6.89" height="13.72" transform="translate(1156.92 611.9) rotate(180)" style="fill:#ebebeb"></rect><rect x="562.82" y="299.09" width="6.89" height="13.72" transform="translate(1132.52 611.9) rotate(180)" style="fill:#ebebeb"></rect><rect x="550.62" y="299.09" width="6.89" height="13.72" transform="translate(1108.12 611.9) rotate(180)" style="fill:#ebebeb"></rect><rect x="538.42" y="299.09" width="6.89" height="13.72" transform="translate(1083.72 611.9) rotate(180)" style="fill:#ebebeb"></rect><rect x="587.22" y="321.39" width="6.89" height="13.72" transform="translate(1181.32 656.5) rotate(180)" style="fill:#ebebeb"></rect><rect x="575.02" y="321.39" width="6.89" height="13.72" transform="translate(1156.92 656.5) rotate(180)" style="fill:#ebebeb"></rect><rect x="562.82" y="321.39" width="6.89" height="13.72" transform="translate(1132.52 656.5) rotate(180)" style="fill:#ebebeb"></rect><rect x="550.62" y="321.39" width="6.89" height="13.72" transform="translate(1108.12 656.5) rotate(180)" style="fill:#ebebeb"></rect><rect x="538.42" y="321.39" width="6.89" height="13.72" transform="translate(1083.72 656.5) rotate(180)" style="fill:#ebebeb"></rect><rect x="587.22" y="343.69" width="6.89" height="13.72" transform="translate(1181.32 701.09) rotate(180)" style="fill:#ebebeb"></rect><rect x="575.02" y="343.69" width="6.89" height="13.72" transform="translate(1156.92 701.09) rotate(180)" style="fill:#ebebeb"></rect><rect x="562.82" y="343.69" width="6.89" height="13.72" transform="translate(1132.52 701.09) rotate(180)" style="fill:#ebebeb"></rect><rect x="550.62" y="343.69" width="6.89" height="13.72" transform="translate(1108.12 701.09) rotate(180)" style="fill:#ebebeb"></rect><rect x="538.42" y="343.69" width="6.89" height="13.72" transform="translate(1083.72 701.09) rotate(180)" style="fill:#ebebeb"></rect><rect x="587.22" y="365.99" width="6.89" height="13.72" transform="translate(1181.32 745.69) rotate(180)" style="fill:#ebebeb"></rect><rect x="575.02" y="365.99" width="6.89" height="13.72" transform="translate(1156.92 745.69) rotate(180)" style="fill:#ebebeb"></rect><rect x="562.82" y="365.99" width="6.89" height="13.72" transform="translate(1132.52 745.69) rotate(180)" style="fill:#ebebeb"></rect><rect x="550.62" y="365.99" width="6.89" height="13.72" transform="translate(1108.12 745.69) rotate(180)" style="fill:#ebebeb"></rect><rect x="538.42" y="365.99" width="6.89" height="13.72" transform="translate(1083.72 745.69) rotate(180)" style="fill:#ebebeb"></rect><rect x="587.22" y="388.29" width="6.89" height="13.72" transform="translate(1181.32 790.29) rotate(180)" style="fill:#ebebeb"></rect><rect x="575.02" y="388.29" width="6.89" height="13.72" transform="translate(1156.92 790.29) rotate(180)" style="fill:#ebebeb"></rect><rect x="562.82" y="388.29" width="6.89" height="13.72" transform="translate(1132.52 790.29) rotate(180)" style="fill:#ebebeb"></rect><rect x="550.62" y="388.29" width="6.89" height="13.72" transform="translate(1108.12 790.29) rotate(180)" style="fill:#ebebeb"></rect><rect x="538.42" y="388.29" width="6.89" height="13.72" transform="translate(1083.72 790.29) rotate(180)" style="fill:#ebebeb"></rect><rect x="587.22" y="410.58" width="6.89" height="13.72" transform="translate(1181.32 834.89) rotate(180)" style="fill:#ebebeb"></rect><rect x="575.02" y="410.58" width="6.89" height="13.72" transform="translate(1156.92 834.89) rotate(180)" style="fill:#ebebeb"></rect><rect x="562.82" y="410.58" width="6.89" height="13.72" transform="translate(1132.52 834.89) rotate(180)" style="fill:#ebebeb"></rect><rect x="550.62" y="410.58" width="6.89" height="13.72" transform="translate(1108.12 834.89) rotate(180)" style="fill:#ebebeb"></rect><rect x="538.42" y="410.58" width="6.89" height="13.72" transform="translate(1083.72 834.89) rotate(180)" style="fill:#ebebeb"></rect><rect x="587.22" y="432.88" width="6.89" height="8.55" transform="translate(1181.32 874.32) rotate(180)" style="fill:#ebebeb"></rect><rect x="575.02" y="432.88" width="6.89" height="8.55" transform="translate(1156.92 874.32) rotate(180)" style="fill:#ebebeb"></rect><rect x="562.82" y="432.88" width="6.89" height="8.55" transform="translate(1132.52 874.32) rotate(180)" style="fill:#ebebeb"></rect><rect x="550.62" y="432.88" width="6.89" height="8.55" transform="translate(1108.12 874.32) rotate(180)" style="fill:#ebebeb"></rect><rect x="538.42" y="432.88" width="6.89" height="8.55" transform="translate(1083.72 874.32) rotate(180)" style="fill:#ebebeb"></rect><rect x="488.63" y="123.97" width="43.64" height="317.47" transform="translate(1020.9 565.4) rotate(180)" style="fill:#dbdbdb"></rect><rect x="486.74" y="117.02" width="45.53" height="6.95" transform="translate(1019.01 240.98) rotate(180)" style="fill:#c7c7c7"></rect><rect x="519.24" y="134.21" width="6.89" height="307.22" transform="translate(1045.36 575.65) rotate(180)" style="fill:#c7c7c7"></rect><rect x="507.04" y="134.21" width="6.89" height="307.22" transform="translate(1020.96 575.65) rotate(180)" style="fill:#c7c7c7"></rect><rect x="494.84" y="134.21" width="6.89" height="307.22" transform="translate(996.56 575.65) rotate(180)" style="fill:#c7c7c7"></rect><rect x="519.24" y="142.99" width="6.89" height="13.72" transform="translate(1045.36 299.71) rotate(180)" style="fill:#dbdbdb"></rect><rect x="507.04" y="142.99" width="6.89" height="13.72" transform="translate(1020.96 299.71) rotate(180)" style="fill:#dbdbdb"></rect><rect x="494.84" y="142.99" width="6.89" height="13.72" transform="translate(996.56 299.71) rotate(180)" style="fill:#dbdbdb"></rect><rect x="519.24" y="165.29" width="6.89" height="13.72" transform="translate(1045.36 344.31) rotate(180)" style="fill:#dbdbdb"></rect><rect x="507.04" y="165.29" width="6.89" height="13.72" transform="translate(1020.96 344.31) rotate(180)" style="fill:#dbdbdb"></rect><rect x="494.84" y="165.29" width="6.89" height="13.72" transform="translate(996.56 344.31) rotate(180)" style="fill:#dbdbdb"></rect><rect x="519.24" y="187.59" width="6.89" height="13.72" transform="translate(1045.36 388.9) rotate(180)" style="fill:#dbdbdb"></rect><rect x="507.04" y="187.59" width="6.89" height="13.72" transform="translate(1020.96 388.9) rotate(180)" style="fill:#dbdbdb"></rect><rect x="494.84" y="187.59" width="6.89" height="13.72" transform="translate(996.56 388.9) rotate(180)" style="fill:#dbdbdb"></rect><rect x="519.24" y="209.89" width="6.89" height="13.72" transform="translate(1045.36 433.5) rotate(180)" style="fill:#dbdbdb"></rect><rect x="507.04" y="209.89" width="6.89" height="13.72" transform="translate(1020.96 433.5) rotate(180)" style="fill:#dbdbdb"></rect><rect x="494.84" y="209.89" width="6.89" height="13.72" transform="translate(996.56 433.5) rotate(180)" style="fill:#dbdbdb"></rect><rect x="519.24" y="232.19" width="6.89" height="13.72" transform="translate(1045.36 478.1) rotate(180)" style="fill:#dbdbdb"></rect><rect x="507.04" y="232.19" width="6.89" height="13.72" transform="translate(1020.96 478.1) rotate(180)" style="fill:#dbdbdb"></rect><rect x="494.84" y="232.19" width="6.89" height="13.72" transform="translate(996.56 478.1) rotate(180)" style="fill:#dbdbdb"></rect><rect x="519.24" y="254.49" width="6.89" height="13.72" transform="translate(1045.36 522.7) rotate(180)" style="fill:#dbdbdb"></rect><rect x="507.04" y="254.49" width="6.89" height="13.72" transform="translate(1020.96 522.7) rotate(180)" style="fill:#dbdbdb"></rect><rect x="494.84" y="254.49" width="6.89" height="13.72" transform="translate(996.56 522.7) rotate(180)" style="fill:#dbdbdb"></rect><rect x="519.24" y="276.79" width="6.89" height="13.72" transform="translate(1045.36 567.3) rotate(180)" style="fill:#dbdbdb"></rect><rect x="507.04" y="276.79" width="6.89" height="13.72" transform="translate(1020.96 567.3) rotate(180)" style="fill:#dbdbdb"></rect><rect x="494.84" y="276.79" width="6.89" height="13.72" transform="translate(996.56 567.3) rotate(180)" style="fill:#dbdbdb"></rect><rect x="519.24" y="299.09" width="6.89" height="13.72" transform="translate(1045.36 611.9) rotate(180)" style="fill:#dbdbdb"></rect><rect x="507.04" y="299.09" width="6.89" height="13.72" transform="translate(1020.96 611.9) rotate(180)" style="fill:#dbdbdb"></rect><rect x="494.84" y="299.09" width="6.89" height="13.72" transform="translate(996.56 611.9) rotate(180)" style="fill:#dbdbdb"></rect><rect x="519.24" y="321.39" width="6.89" height="13.72" transform="translate(1045.36 656.5) rotate(180)" style="fill:#dbdbdb"></rect><rect x="507.04" y="321.39" width="6.89" height="13.72" transform="translate(1020.96 656.5) rotate(180)" style="fill:#dbdbdb"></rect><rect x="494.84" y="321.39" width="6.89" height="13.72" transform="translate(996.56 656.5) rotate(180)" style="fill:#dbdbdb"></rect><rect x="519.24" y="343.69" width="6.89" height="13.72" transform="translate(1045.36 701.09) rotate(180)" style="fill:#dbdbdb"></rect><rect x="507.04" y="343.69" width="6.89" height="13.72" transform="translate(1020.96 701.09) rotate(180)" style="fill:#dbdbdb"></rect><rect x="494.84" y="343.69" width="6.89" height="13.72" transform="translate(996.56 701.09) rotate(180)" style="fill:#dbdbdb"></rect><rect x="519.24" y="365.99" width="6.89" height="13.72" transform="translate(1045.36 745.69) rotate(180)" style="fill:#dbdbdb"></rect><rect x="507.04" y="365.99" width="6.89" height="13.72" transform="translate(1020.96 745.69) rotate(180)" style="fill:#dbdbdb"></rect><rect x="494.84" y="365.99" width="6.89" height="13.72" transform="translate(996.56 745.69) rotate(180)" style="fill:#dbdbdb"></rect><rect x="519.24" y="388.29" width="6.89" height="13.72" transform="translate(1045.36 790.29) rotate(180)" style="fill:#dbdbdb"></rect><rect x="507.04" y="388.29" width="6.89" height="13.72" transform="translate(1020.96 790.29) rotate(180)" style="fill:#dbdbdb"></rect><rect x="494.84" y="388.29" width="6.89" height="13.72" transform="translate(996.56 790.29) rotate(180)" style="fill:#dbdbdb"></rect><rect x="519.24" y="410.58" width="6.89" height="13.72" transform="translate(1045.36 834.89) rotate(180)" style="fill:#dbdbdb"></rect><rect x="507.04" y="410.58" width="6.89" height="13.72" transform="translate(1020.96 834.89) rotate(180)" style="fill:#dbdbdb"></rect><rect x="494.84" y="410.58" width="6.89" height="13.72" transform="translate(996.56 834.89) rotate(180)" style="fill:#dbdbdb"></rect><rect x="519.24" y="432.88" width="6.89" height="8.55" transform="translate(1045.36 874.32) rotate(180)" style="fill:#dbdbdb"></rect><rect x="507.04" y="432.88" width="6.89" height="8.55" transform="translate(1020.96 874.32) rotate(180)" style="fill:#dbdbdb"></rect><rect x="494.84" y="432.88" width="6.89" height="8.55" transform="translate(996.56 874.32) rotate(180)" style="fill:#dbdbdb"></rect><rect x="618.87" y="228.49" width="71.79" height="212.95" transform="translate(1309.53 669.93) rotate(180)" style="fill:#ebebeb"></rect><rect x="618.87" y="210.43" width="61.57" height="18.06" transform="translate(1299.32 438.92) rotate(180)" style="fill:#c7c7c7"></rect><rect x="626.74" y="237.91" width="56.04" height="203.52" transform="translate(1309.53 679.35) rotate(180)" style="fill:#dbdbdb"></rect><rect x="626.74" y="257.34" width="56.04" height="4.81" transform="translate(1309.53 519.48) rotate(180)" style="fill:#fff"></rect><rect x="626.74" y="277.26" width="56.04" height="4.81" transform="translate(1309.53 559.32) rotate(180)" style="fill:#fff"></rect><rect x="626.74" y="297.18" width="56.04" height="4.81" transform="translate(1309.53 599.17) rotate(180)" style="fill:#fff"></rect><rect x="626.74" y="317.1" width="56.04" height="4.81" transform="translate(1309.53 639.01) rotate(180)" style="fill:#fff"></rect><rect x="626.74" y="337.02" width="56.04" height="4.81" transform="translate(1309.53 678.85) rotate(180)" style="fill:#fff"></rect><rect x="626.74" y="356.94" width="56.04" height="4.81" transform="translate(1309.53 718.69) rotate(180)" style="fill:#fff"></rect><rect x="626.74" y="376.86" width="56.04" height="4.81" transform="translate(1309.53 758.54) rotate(180)" style="fill:#fff"></rect><rect x="626.74" y="396.78" width="56.04" height="4.81" transform="translate(1309.53 798.38) rotate(180)" style="fill:#fff"></rect><rect x="626.74" y="416.71" width="56.04" height="4.81" transform="translate(1309.53 838.22) rotate(180)" style="fill:#fff"></rect><rect x="626.74" y="436.63" width="56.04" height="4.81" transform="translate(1309.53 878.06) rotate(180)" style="fill:#fff"></rect><rect x="573.91" y="228.49" width="44.96" height="212.95" transform="translate(1192.78 669.93) rotate(180)" style="fill:#dbdbdb"></rect><rect x="580.66" y="210.43" width="38.22" height="18.06" transform="translate(1199.53 438.92) rotate(180)" style="fill:#a6a6a6"></rect><rect x="578.1" y="237.91" width="34.57" height="203.52" transform="translate(1190.77 679.35) rotate(180)" style="fill:#c7c7c7"></rect><rect x="578.1" y="257.34" width="34.57" height="4.81" transform="translate(1190.77 519.48) rotate(180)" style="fill:#fff"></rect><rect x="578.1" y="277.26" width="34.57" height="4.81" transform="translate(1190.77 559.32) rotate(180)" style="fill:#fff"></rect><rect x="578.1" y="297.18" width="34.57" height="4.81" transform="translate(1190.77 599.17) rotate(180)" style="fill:#fff"></rect><rect x="578.1" y="317.1" width="34.57" height="4.81" transform="translate(1190.77 639.01) rotate(180)" style="fill:#fff"></rect><rect x="578.1" y="337.02" width="34.57" height="4.81" transform="translate(1190.77 678.85) rotate(180)" style="fill:#fff"></rect><rect x="578.1" y="356.94" width="34.57" height="4.81" transform="translate(1190.77 718.69) rotate(180)" style="fill:#fff"></rect><rect x="578.1" y="376.86" width="34.57" height="4.81" transform="translate(1190.77 758.54) rotate(180)" style="fill:#fff"></rect><rect x="578.1" y="396.78" width="34.57" height="4.81" transform="translate(1190.77 798.38) rotate(180)" style="fill:#fff"></rect><rect x="578.1" y="416.71" width="34.57" height="4.81" transform="translate(1190.77 838.22) rotate(180)" style="fill:#fff"></rect><rect x="578.1" y="436.63" width="34.57" height="4.81" transform="translate(1190.77 878.06) rotate(180)" style="fill:#fff"></rect><rect x="445.63" y="228.49" width="60.83" height="212.95" transform="translate(952.08 669.93) rotate(180)" style="fill:#dbdbdb"></rect><rect x="486.12" y="246.92" width="10.76" height="13.05" transform="translate(983 506.89) rotate(180)" style="fill:#c7c7c7"></rect><rect x="486.12" y="274.79" width="10.76" height="13.05" transform="translate(983 562.62) rotate(180)" style="fill:#c7c7c7"></rect><rect x="486.12" y="302.65" width="10.76" height="13.05" transform="translate(983 618.36) rotate(180)" style="fill:#c7c7c7"></rect><rect x="486.12" y="330.52" width="10.76" height="13.05" transform="translate(983 674.09) rotate(180)" style="fill:#c7c7c7"></rect><rect x="486.12" y="358.39" width="10.76" height="13.05" transform="translate(983 729.82) rotate(180)" style="fill:#c7c7c7"></rect><rect x="486.12" y="386.25" width="10.76" height="13.05" transform="translate(983 785.55) rotate(180)" style="fill:#c7c7c7"></rect><rect x="486.12" y="414.12" width="10.76" height="13.05" transform="translate(983 841.28) rotate(180)" style="fill:#c7c7c7"></rect><rect x="470.64" y="246.92" width="10.76" height="13.05" transform="translate(952.04 506.89) rotate(180)" style="fill:#c7c7c7"></rect><rect x="470.64" y="274.79" width="10.76" height="13.05" transform="translate(952.04 562.62) rotate(180)" style="fill:#c7c7c7"></rect><rect x="470.64" y="302.65" width="10.76" height="13.05" transform="translate(952.04 618.36) rotate(180)" style="fill:#c7c7c7"></rect><rect x="470.64" y="330.52" width="10.76" height="13.05" transform="translate(952.04 674.09) rotate(180)" style="fill:#c7c7c7"></rect><rect x="470.64" y="358.39" width="10.76" height="13.05" transform="translate(952.04 729.82) rotate(180)" style="fill:#c7c7c7"></rect><rect x="470.64" y="386.25" width="10.76" height="13.05" transform="translate(952.04 785.55) rotate(180)" style="fill:#c7c7c7"></rect><rect x="470.64" y="414.12" width="10.76" height="13.05" transform="translate(952.04 841.28) rotate(180)" style="fill:#c7c7c7"></rect><rect x="455.19" y="246.92" width="10.76" height="13.05" transform="translate(921.14 506.89) rotate(180)" style="fill:#c7c7c7"></rect><rect x="455.19" y="274.79" width="10.76" height="13.05" transform="translate(921.14 562.62) rotate(180)" style="fill:#c7c7c7"></rect><rect x="455.19" y="302.65" width="10.76" height="13.05" transform="translate(921.14 618.36) rotate(180)" style="fill:#c7c7c7"></rect><rect x="455.19" y="330.52" width="10.76" height="13.05" transform="translate(921.14 674.09) rotate(180)" style="fill:#c7c7c7"></rect><rect x="455.19" y="358.39" width="10.76" height="13.05" transform="translate(921.14 729.82) rotate(180)" style="fill:#c7c7c7"></rect><rect x="455.19" y="386.25" width="10.76" height="13.05" transform="translate(921.14 785.55) rotate(180)" style="fill:#c7c7c7"></rect><rect x="455.19" y="414.12" width="10.76" height="13.05" transform="translate(921.14 841.28) rotate(180)" style="fill:#c7c7c7"></rect><rect x="402.95" y="228.49" width="42.68" height="212.95" transform="translate(848.57 669.93) rotate(180)" style="fill:#a6a6a6"></rect><rect x="407.32" y="412.04" width="8.76" height="13.05" style="fill:#c7c7c7"></rect><rect x="407.32" y="384.17" width="8.76" height="13.05" style="fill:#c7c7c7"></rect><rect x="407.32" y="356.31" width="8.76" height="13.05" style="fill:#c7c7c7"></rect><rect x="407.32" y="328.44" width="8.76" height="13.05" style="fill:#c7c7c7"></rect><rect x="407.32" y="300.57" width="8.76" height="13.05" style="fill:#c7c7c7"></rect><rect x="407.32" y="272.71" width="8.76" height="13.05" style="fill:#c7c7c7"></rect><rect x="407.32" y="244.84" width="8.76" height="13.05" style="fill:#c7c7c7"></rect><rect x="419.92" y="412.04" width="8.76" height="13.05" style="fill:#c7c7c7"></rect><rect x="419.92" y="384.17" width="8.76" height="13.05" style="fill:#c7c7c7"></rect><rect x="419.92" y="356.31" width="8.76" height="13.05" style="fill:#c7c7c7"></rect><rect x="419.92" y="328.44" width="8.76" height="13.05" style="fill:#c7c7c7"></rect><rect x="419.92" y="300.57" width="8.76" height="13.05" style="fill:#c7c7c7"></rect><rect x="419.92" y="272.71" width="8.76" height="13.05" style="fill:#c7c7c7"></rect><rect x="419.92" y="244.84" width="8.76" height="13.05" style="fill:#c7c7c7"></rect><rect x="432.49" y="412.04" width="8.76" height="13.05" style="fill:#c7c7c7"></rect><rect x="432.49" y="384.17" width="8.76" height="13.05" style="fill:#c7c7c7"></rect><rect x="432.49" y="356.31" width="8.76" height="13.05" style="fill:#c7c7c7"></rect><rect x="432.49" y="328.44" width="8.76" height="13.05" style="fill:#c7c7c7"></rect><rect x="432.49" y="300.57" width="8.76" height="13.05" style="fill:#c7c7c7"></rect><rect x="432.49" y="272.71" width="8.76" height="13.05" style="fill:#c7c7c7"></rect><rect x="432.49" y="244.84" width="8.76" height="13.05" style="fill:#c7c7c7"></rect><rect x="118.53" y="173.78" width="38.34" height="45.29" transform="translate(275.4 392.85) rotate(180)" style="fill:#dbdbdb"></rect><rect x="94.22" y="173.78" width="24.31" height="46.95" transform="translate(212.75 394.51) rotate(180)" style="fill:#c7c7c7"></rect><rect x="92.6" y="193.78" width="24.13" height="26.95" transform="translate(209.33 414.51) rotate(180)" style="fill:#dbdbdb"></rect><rect x="77.56" y="193.78" width="15.05" height="26.95" transform="translate(170.16 414.51) rotate(180)" style="fill:#c7c7c7"></rect><rect x="109.58" y="216.12" width="61.99" height="225.31" transform="translate(281.15 657.56) rotate(180)" style="fill:#ebebeb"></rect><rect x="144.99" y="225.81" width="19.49" height="7.97" transform="translate(309.48 459.59) rotate(180)" style="fill:#fff"></rect><rect x="120.06" y="225.81" width="19.49" height="7.97" transform="translate(259.61 459.59) rotate(180)" style="fill:#fff"></rect><rect x="144.99" y="239.33" width="19.49" height="7.97" transform="translate(309.48 486.63) rotate(180)" style="fill:#fff"></rect><rect x="120.06" y="239.33" width="19.49" height="7.97" transform="translate(259.61 486.63) rotate(180)" style="fill:#fff"></rect><rect x="144.99" y="252.86" width="19.49" height="7.97" transform="translate(309.48 513.68) rotate(180)" style="fill:#fff"></rect><rect x="120.06" y="252.86" width="19.49" height="7.97" transform="translate(259.61 513.68) rotate(180)" style="fill:#fff"></rect><rect x="144.99" y="266.38" width="19.49" height="7.97" transform="translate(309.48 540.73) rotate(180)" style="fill:#fff"></rect><rect x="120.06" y="266.38" width="19.49" height="7.97" transform="translate(259.61 540.73) rotate(180)" style="fill:#fff"></rect><rect x="144.99" y="279.91" width="19.49" height="7.97" transform="translate(309.48 567.78) rotate(180)" style="fill:#fff"></rect><rect x="120.06" y="279.91" width="19.49" height="7.97" transform="translate(259.61 567.78) rotate(180)" style="fill:#fff"></rect><rect x="144.99" y="293.43" width="19.49" height="7.97" transform="translate(309.48 594.83) rotate(180)" style="fill:#fff"></rect><rect x="120.06" y="293.43" width="19.49" height="7.97" transform="translate(259.61 594.83) rotate(180)" style="fill:#fff"></rect><rect x="144.99" y="306.95" width="19.49" height="7.97" transform="translate(309.48 621.87) rotate(180)" style="fill:#fff"></rect><rect x="120.06" y="306.95" width="19.49" height="7.97" transform="translate(259.61 621.87) rotate(180)" style="fill:#fff"></rect><rect x="144.99" y="320.48" width="19.49" height="7.97" transform="translate(309.48 648.92) rotate(180)" style="fill:#fff"></rect><rect x="120.06" y="320.48" width="19.49" height="7.97" transform="translate(259.61 648.92) rotate(180)" style="fill:#fff"></rect><rect x="144.99" y="334" width="19.49" height="7.97" transform="translate(309.48 675.97) rotate(180)" style="fill:#fff"></rect><rect x="120.06" y="334" width="19.49" height="7.97" transform="translate(259.61 675.97) rotate(180)" style="fill:#fff"></rect><rect x="144.99" y="347.53" width="19.49" height="7.97" transform="translate(309.48 703.02) rotate(180)" style="fill:#fff"></rect><rect x="120.06" y="347.53" width="19.49" height="7.97" transform="translate(259.61 703.02) rotate(180)" style="fill:#fff"></rect><rect x="144.99" y="361.05" width="19.49" height="7.97" transform="translate(309.48 730.06) rotate(180)" style="fill:#fff"></rect><rect x="120.06" y="361.05" width="19.49" height="7.97" transform="translate(259.61 730.06) rotate(180)" style="fill:#fff"></rect><rect x="144.99" y="374.57" width="19.49" height="7.97" transform="translate(309.48 757.11) rotate(180)" style="fill:#fff"></rect><rect x="120.06" y="374.57" width="19.49" height="7.97" transform="translate(259.61 757.11) rotate(180)" style="fill:#fff"></rect><rect x="144.99" y="388.1" width="19.49" height="7.97" transform="translate(309.48 784.16) rotate(180)" style="fill:#fff"></rect><rect x="120.06" y="388.1" width="19.49" height="7.97" transform="translate(259.61 784.16) rotate(180)" style="fill:#fff"></rect><rect x="144.99" y="401.62" width="19.49" height="7.97" transform="translate(309.48 811.21) rotate(180)" style="fill:#fff"></rect><rect x="120.06" y="401.62" width="19.49" height="7.97" transform="translate(259.61 811.21) rotate(180)" style="fill:#fff"></rect><rect x="59.34" y="216.12" width="50.24" height="225.31" transform="translate(168.92 657.56) rotate(180)" style="fill:#c7c7c7"></rect><rect x="64.38" y="401.62" width="16.01" height="7.97" style="fill:#ebebeb"></rect><rect x="84.86" y="401.62" width="16.01" height="7.97" style="fill:#ebebeb"></rect><rect x="64.38" y="388.1" width="16.01" height="7.97" style="fill:#ebebeb"></rect><rect x="84.86" y="388.1" width="16.01" height="7.97" style="fill:#ebebeb"></rect><rect x="64.38" y="374.57" width="16.01" height="7.97" style="fill:#ebebeb"></rect><rect x="84.86" y="374.57" width="16.01" height="7.97" style="fill:#ebebeb"></rect><rect x="64.38" y="361.05" width="16.01" height="7.97" style="fill:#ebebeb"></rect><rect x="84.86" y="361.05" width="16.01" height="7.97" style="fill:#ebebeb"></rect><rect x="64.38" y="347.53" width="16.01" height="7.97" style="fill:#ebebeb"></rect><rect x="84.86" y="347.53" width="16.01" height="7.97" style="fill:#ebebeb"></rect><rect x="64.38" y="334" width="16.01" height="7.97" style="fill:#ebebeb"></rect><rect x="84.86" y="334" width="16.01" height="7.97" style="fill:#ebebeb"></rect><rect x="64.38" y="320.48" width="16.01" height="7.97" style="fill:#ebebeb"></rect><rect x="84.86" y="320.48" width="16.01" height="7.97" style="fill:#ebebeb"></rect><rect x="64.38" y="306.95" width="16.01" height="7.97" style="fill:#ebebeb"></rect><rect x="84.86" y="306.95" width="16.01" height="7.97" style="fill:#ebebeb"></rect><rect x="64.38" y="293.43" width="16.01" height="7.97" style="fill:#ebebeb"></rect><rect x="84.86" y="293.43" width="16.01" height="7.97" style="fill:#ebebeb"></rect><rect x="64.38" y="279.91" width="16.01" height="7.97" style="fill:#ebebeb"></rect><rect x="84.86" y="279.91" width="16.01" height="7.97" style="fill:#ebebeb"></rect><rect x="64.38" y="266.38" width="16.01" height="7.97" style="fill:#ebebeb"></rect><rect x="84.86" y="266.38" width="16.01" height="7.97" style="fill:#ebebeb"></rect><rect x="64.38" y="252.86" width="16.01" height="7.97" style="fill:#ebebeb"></rect><rect x="84.86" y="252.86" width="16.01" height="7.97" style="fill:#ebebeb"></rect><rect x="64.38" y="239.33" width="16.01" height="7.97" style="fill:#ebebeb"></rect><rect x="84.86" y="239.33" width="16.01" height="7.97" style="fill:#ebebeb"></rect><rect x="64.38" y="225.81" width="16.01" height="7.97" style="fill:#ebebeb"></rect><rect x="84.86" y="225.81" width="16.01" height="7.97" style="fill:#ebebeb"></rect><rect x="291.43" y="294.62" width="73.12" height="146.82" transform="translate(655.99 736.06) rotate(180)" style="fill:#c7c7c7"></rect><rect x="340.11" y="307.33" width="12.94" height="8.99" transform="translate(693.17 623.65) rotate(180)" style="fill:#dbdbdb"></rect><rect x="340.11" y="326.54" width="12.94" height="8.99" transform="translate(693.17 662.08) rotate(180)" style="fill:#dbdbdb"></rect><rect x="340.11" y="345.75" width="12.94" height="9" transform="translate(693.17 700.5) rotate(180)" style="fill:#dbdbdb"></rect><rect x="340.11" y="364.97" width="12.94" height="8.99" transform="translate(693.17 738.93) rotate(180)" style="fill:#dbdbdb"></rect><rect x="340.11" y="384.18" width="12.94" height="9" transform="translate(693.17 777.35) rotate(180)" style="fill:#dbdbdb"></rect><rect x="340.11" y="403.39" width="12.94" height="9" transform="translate(693.17 815.77) rotate(180)" style="fill:#dbdbdb"></rect><rect x="340.11" y="422.6" width="12.94" height="9" transform="translate(693.17 854.2) rotate(180)" style="fill:#dbdbdb"></rect><rect x="321.5" y="307.33" width="12.94" height="8.99" transform="translate(655.94 623.65) rotate(180)" style="fill:#dbdbdb"></rect><rect x="321.5" y="326.54" width="12.94" height="8.99" transform="translate(655.94 662.08) rotate(180)" style="fill:#dbdbdb"></rect><rect x="321.5" y="345.75" width="12.94" height="9" transform="translate(655.94 700.5) rotate(180)" style="fill:#dbdbdb"></rect><rect x="321.5" y="364.97" width="12.94" height="8.99" transform="translate(655.94 738.93) rotate(180)" style="fill:#dbdbdb"></rect><rect x="321.5" y="384.18" width="12.94" height="9" transform="translate(655.94 777.35) rotate(180)" style="fill:#dbdbdb"></rect><rect x="321.5" y="403.39" width="12.94" height="9" transform="translate(655.94 815.77) rotate(180)" style="fill:#dbdbdb"></rect><rect x="321.5" y="422.6" width="12.94" height="9" transform="translate(655.94 854.2) rotate(180)" style="fill:#dbdbdb"></rect><rect x="302.93" y="307.33" width="12.94" height="8.99" transform="translate(618.8 623.65) rotate(180)" style="fill:#dbdbdb"></rect><rect x="302.93" y="326.54" width="12.94" height="8.99" transform="translate(618.8 662.08) rotate(180)" style="fill:#dbdbdb"></rect><rect x="302.93" y="345.75" width="12.94" height="9" transform="translate(618.8 700.5) rotate(180)" style="fill:#dbdbdb"></rect><rect x="302.93" y="364.97" width="12.94" height="8.99" transform="translate(618.8 738.93) rotate(180)" style="fill:#dbdbdb"></rect><rect x="302.93" y="384.18" width="12.94" height="9" transform="translate(618.8 777.35) rotate(180)" style="fill:#dbdbdb"></rect><rect x="302.93" y="403.39" width="12.94" height="9" transform="translate(618.8 815.77) rotate(180)" style="fill:#dbdbdb"></rect><rect x="302.93" y="422.6" width="12.94" height="9" transform="translate(618.8 854.2) rotate(180)" style="fill:#dbdbdb"></rect><rect x="291.43" y="279.32" width="48.68" height="15.3" transform="translate(631.55 573.94) rotate(180)" style="fill:#dbdbdb"></rect><rect x="291.43" y="269.85" width="30.86" height="9.47" transform="translate(613.73 549.18) rotate(180)" style="fill:#ebebeb"></rect><rect x="240.13" y="294.62" width="51.3" height="146.82" transform="translate(531.56 736.06) rotate(180)" style="fill:#a6a6a6"></rect><rect x="245.38" y="421.17" width="10.53" height="9" style="fill:#c7c7c7"></rect><rect x="245.38" y="401.96" width="10.53" height="8.99" style="fill:#c7c7c7"></rect><rect x="245.38" y="382.74" width="10.53" height="9" style="fill:#c7c7c7"></rect><rect x="245.38" y="363.53" width="10.53" height="9" style="fill:#c7c7c7"></rect><rect x="245.38" y="344.32" width="10.53" height="9" style="fill:#c7c7c7"></rect><rect x="245.38" y="325.11" width="10.53" height="8.99" style="fill:#c7c7c7"></rect><rect x="245.38" y="305.89" width="10.53" height="8.99" style="fill:#c7c7c7"></rect><rect x="260.53" y="421.17" width="10.53" height="9" style="fill:#c7c7c7"></rect><rect x="260.53" y="401.96" width="10.53" height="8.99" style="fill:#c7c7c7"></rect><rect x="260.53" y="382.74" width="10.53" height="9" style="fill:#c7c7c7"></rect><rect x="260.53" y="363.53" width="10.53" height="9" style="fill:#c7c7c7"></rect><rect x="260.53" y="344.32" width="10.53" height="9" style="fill:#c7c7c7"></rect><rect x="260.53" y="325.11" width="10.53" height="8.99" style="fill:#c7c7c7"></rect><rect x="260.53" y="305.89" width="10.53" height="8.99" style="fill:#c7c7c7"></rect><rect x="275.65" y="421.17" width="10.53" height="9" style="fill:#c7c7c7"></rect><rect x="275.65" y="401.96" width="10.53" height="8.99" style="fill:#c7c7c7"></rect><rect x="275.65" y="382.74" width="10.53" height="9" style="fill:#c7c7c7"></rect><rect x="275.65" y="363.53" width="10.53" height="9" style="fill:#c7c7c7"></rect><rect x="275.65" y="344.32" width="10.53" height="9" style="fill:#c7c7c7"></rect><rect x="275.65" y="325.11" width="10.53" height="8.99" style="fill:#c7c7c7"></rect><rect x="275.65" y="305.89" width="10.53" height="8.99" style="fill:#c7c7c7"></rect><rect x="247.9" y="279.32" width="43.53" height="15.3" transform="translate(539.33 573.94) rotate(180)" style="fill:#c7c7c7"></rect><rect x="267.84" y="269.85" width="23.59" height="9.47" transform="translate(559.27 549.18) rotate(180)" style="fill:#dbdbdb"></rect></g><g id="freepik--Floor--inject-17"><path d="M58.37,441.44c202.85-.62,430.41-.62,633.26,0-202.85.61-430.41.61-633.26,0Z" style="fill:#263238"></path></g><g id="freepik--Road--inject-17"><polygon points="750 464.13 750 500 0 500 0 464.13 103.08 441.44 636.92 441.44 750 464.13" style="fill:#a6a6a6"></polygon><polygon points="750 467.6 750 469.47 618.62 441.44 624.7 441.44 750 467.6" style="fill:#BA68C8"></polygon><polygon points="121.38 441.44 0 469.47 0 467.6 115.3 441.44 121.38 441.44" style="fill:#BA68C8"></polygon><polygon points="381.81 500 368.19 500 371.83 441.44 378.16 441.44 381.81 500" style="fill:#c7c7c7"></polygon></g><g id="freepik--Car--inject-17"><path d="M187,188.45s-10.06-4.2-11.57-6.56-8-12.3-10.34-12.69c-8.62-1.45-32.16-.57-40.06,3.68-4.33,2.33.23,19.53,4.2,23.56s32.35,4.88,36.94,3.95,8-5.63,8-5.63l11.29,3.14Z" style="fill:#BA68C8"></path><path d="M189.79,175.79s-7.64,1.11-9.49,2.71-7.65,14.43-7.28,18.87,5.06,9,5.06,9Z" style="fill:#BA68C8"></path><path d="M189.79,175.79s-7.64,1.11-9.49,2.71-7.65,14.43-7.28,18.87,5.06,9,5.06,9Z" style="opacity:0.1"></path><path d="M563,188.45s10.06-4.2,11.57-6.56,8-12.3,10.34-12.69c8.62-1.45,32.16-.57,40.06,3.68,4.33,2.33-.23,19.53-4.2,23.56s-32.35,4.88-36.94,3.95-8-5.63-8-5.63l-11.29,3.14Z" style="fill:#BA68C8"></path><path d="M560.21,175.79s7.64,1.11,9.49,2.71,7.65,14.43,7.28,18.87-5.06,9-5.06,9Z" style="fill:#BA68C8"></path><path d="M560.21,175.79s7.64,1.11,9.49,2.71,7.65,14.43,7.28,18.87-5.06,9-5.06,9Z" style="opacity:0.1"></path><rect x="128.94" y="291.45" width="72.34" height="150.89" rx="11.25" style="fill:#263238"></rect><path d="M152.86,247.85s-16.77,8.55-20.72,16.44,0,89.45,0,95.7,12.15,47,14.46,51.3,34.21,9.21,34.21,9.21Z" style="fill:#BA68C8"></path><path d="M152.86,247.85s-16.77,8.55-20.72,16.44,0,89.45,0,95.7,12.15,47,14.46,51.3,34.21,9.21,34.21,9.21Z" style="opacity:0.1"></path><rect x="548.72" y="291.45" width="72.34" height="150.89" rx="11.25" transform="translate(1169.79 733.79) rotate(180)" style="fill:#263238"></rect><path d="M597.14,247.85s16.78,8.55,20.72,16.44,0,89.45,0,95.7-12.15,47-14.46,51.3-34.21,9.21-34.21,9.21Z" style="fill:#BA68C8"></path><path d="M597.14,247.85s16.78,8.55,20.72,16.44,0,89.45,0,95.7-12.15,47-14.46,51.3-34.21,9.21-34.21,9.21Z" style="opacity:0.1"></path><path d="M601.53,372.16c0-1.65,1.76-116.21,1.26-118.44s-5.18-17.75-7.27-21.08-20.84-27-21.33-28.49c-11.54-34.59-43.79-97.88-48.72-102.33a32.35,32.35,0,0,0-16.4-7.77C504.14,93.44,437.42,91,375,91s-129.14,2.46-134.06,3.07a32.34,32.34,0,0,0-16.41,7.77c-4.94,4.45-37.19,67.74-48.71,102.33-.49,1.48-19.24,25.16-21.34,28.49s-6.79,18.87-7.28,21.08,1.28,116.79,1.28,118.44-2.3,9.21-2.14,11.34,7.4,32.73,10.35,35.84,62.16,5.59,65.78,5.59,15-6.4,17.1-6.89,120.9-.17,135.43-.17,133.3-.34,135.43.17,13.49,6.89,17.09,6.89,62.82-2.46,65.77-5.59,10.21-33.7,10.37-35.84S601.53,373.8,601.53,372.16ZM375,206.37c-101.06,0-190.18-3.9-190.18-3.9,18.24-45.71,42.1-93.73,44.72-95.71s12-5.43,14.63-6.08c11.2-2.8,91.26-3.29,130.83-3.29s119.62.49,130.82,3.29c2.64.65,12,4.11,14.64,6.08s26.48,50,44.72,95.71C565.18,202.47,476.06,206.37,375,206.37Z" style="fill:#BA68C8"></path><path d="M589.3,363.11c0,2-2.67,17.32-4.4,17.75-47.63,11.85-162,21.81-209.9,21-47.87.79-162.26-9.17-209.89-21-1.74-.43-4.41-15.78-4.41-17.75s2-23.84,4.41-24.49,52.82,8.39,95.18,14c59.07,7.85,114.71,7.11,114.71,7.11s55.63.74,114.71-7.11c42.35-5.62,92.74-14.68,95.19-14S589.3,361.13,589.3,363.11Z" style="opacity:0.1"></path><path d="M542.77,344.77l-16.22,46.14c-52.81,6.88-118.27,11.52-151.55,11-33.29.55-98.74-4.09-151.54-11l-16.22-46.14c16.38,2.58,35.41,5.52,53.05,7.86,59.07,7.85,114.71,7.11,114.71,7.11s55.62.74,114.71-7.11C507.34,350.29,526.39,347.35,542.77,344.77Z" style="fill:#fff;opacity:0.5"></path><path d="M489.71,352.63c.24,1.1-8.87,19.2-15.74,30-2,3.2-11.89,10.6-14.18,11.09s-30.69,8.19-84.79,8.19-82.47-7.7-84.79-8.19S278.08,385.8,276,382.6c-6.87-10.77-16-28.87-15.74-30s34.17,7.11,114.71,7.11S489.5,351.54,489.71,352.63Z" style="fill:#263238"></path><circle cx="185.93" cy="362.86" r="9.99" transform="translate(-124.71 98.77) rotate(-22.5)" style="fill:#fff"></circle><path d="M178.86,355.8c6.28-6.53,18-2.18,18.33,7.07a10.9,10.9,0,0,1-11.26,11.26c-9.25-.29-13.6-12.05-7.07-18.33Zm0,0a9.32,9.32,0,0,0,.53,13.6c8.82,7.1,20.18-4.26,13.08-13.08a9.33,9.33,0,0,0-13.61-.52Z" style="fill:#dbdbdb"></path><circle cx="562.99" cy="362.86" r="9.99" transform="translate(-68.54 139.7) rotate(-13.34)" style="fill:#fff"></circle><path d="M570.05,355.8a9.32,9.32,0,0,0-13.6.52c-7.11,8.83,4.26,20.18,13.08,13.08a9.32,9.32,0,0,0,.52-13.6Zm0,0c6.54,6.28,2.19,18-7.06,18.33a10.89,10.89,0,0,1-11.26-11.27c.3-9.23,12-13.6,18.32-7.06Z" style="fill:#dbdbdb"></path><path d="M565.18,202.47s-89.12,3.9-190.18,3.9-190.18-3.9-190.18-3.9c18.24-45.71,42.1-93.73,44.72-95.71s12-5.43,14.63-6.08c11.2-2.8,91.26-3.29,130.83-3.29s119.62.49,130.82,3.29c2.64.65,12,4.11,14.64,6.08S546.94,156.76,565.18,202.47Z" style="fill:#dbdbdb;opacity:0.5"></path><path d="M339.21,164.91H227.45a7.23,7.23,0,0,0-7.14,6.09l-3.18,20.08a7.22,7.22,0,0,0,7.13,8.36H342.4a7.22,7.22,0,0,0,7.13-8.36L346.35,171A7.22,7.22,0,0,0,339.21,164.91Z" style="fill:#BA68C8"></path><rect x="245.58" y="141.63" width="75.5" height="31.07" rx="3.85" style="fill:#BA68C8"></rect><g style="opacity:0.4"><path d="M339.21,164.91H227.45a7.23,7.23,0,0,0-7.14,6.09l-3.18,20.08a7.22,7.22,0,0,0,7.13,8.36H342.4a7.22,7.22,0,0,0,7.13-8.36L346.35,171A7.22,7.22,0,0,0,339.21,164.91Z"></path><rect x="245.58" y="141.63" width="75.5" height="31.07" rx="3.85"></rect></g><path d="M522.55,164.91H410.79a7.22,7.22,0,0,0-7.14,6.09l-3.18,20.08a7.22,7.22,0,0,0,7.13,8.36H525.74a7.22,7.22,0,0,0,7.13-8.36L529.69,171A7.23,7.23,0,0,0,522.55,164.91Z" style="fill:#BA68C8"></path><rect x="428.92" y="141.63" width="75.5" height="31.07" rx="3.85" style="fill:#BA68C8"></rect><g style="opacity:0.4"><path d="M522.55,164.91H410.79a7.22,7.22,0,0,0-7.14,6.09l-3.18,20.08a7.22,7.22,0,0,0,7.13,8.36H525.74a7.22,7.22,0,0,0,7.13-8.36L529.69,171A7.23,7.23,0,0,0,522.55,164.91Z"></path><rect x="428.92" y="141.63" width="75.5" height="31.07" rx="3.85"></rect></g><g style="opacity:0.30000000000000004"><path d="M329.88,97.59,223.6,203.87c-12.94-.41-23.14-.78-29.83-1L298.61,98C308.75,97.81,319.44,97.68,329.88,97.59Z" style="fill:#fff"></path><path d="M539.23,143,477,205.19h0c-9.95.22-20.49.43-31.48.6l83.59-83.59C532,127.94,535.47,135,539.23,143Z" style="fill:#fff"></path><path d="M288.68,98.19,185.1,201.77c1.07-2.66,2.15-5.34,3.25-8l95.46-95.46Z" style="fill:#fff"></path><path d="M437.71,97.77,329.34,206.12l-4.7-.05L433,97.72Z" style="fill:#fff"></path><path d="M563.89,199.25h0l-3.42,3.41-5,.19,7-7C563,197,563.44,198.12,563.89,199.25Z" style="fill:#fff"></path><path d="M478.85,98.69,371.17,206.37l-10.57,0,108-108C472.16,98.47,475.6,98.57,478.85,98.69Z" style="fill:#fff"></path></g><path d="M565.18,202.47s-89.12,3.9-190.18,3.9-190.18-3.9-190.18-3.9c1.72-4.3,3.49-8.51,5.27-12.61,20.51.82,98.33,3.68,184.91,3.68s164.4-2.86,184.92-3.68Q562.59,196,565.18,202.47Z" style="fill:#263238"></path><path d="M184.82,202.47c-4.15,9.69-9.84,18.75-15.61,27.54-.16.23-.46.7-.61.93-.31,1,.86,3.12,1.47,4.2.88,1.58,1.92,3.09,2.94,4.65-2.49-2-8.28-6.84-6.27-10.39a147.48,147.48,0,0,1,18.08-26.93Z" style="opacity:0.1"></path><path d="M565.18,202.47a147,147,0,0,1,18.08,26.93c2,3.56-3.76,8.4-6.26,10.39,1-1.56,2-3.07,2.93-4.65.62-1.07,1.79-3.18,1.48-4.2-.15-.23-.46-.7-.62-.93-5.76-8.79-11.45-17.84-15.61-27.54Z" style="opacity:0.1"></path><path d="M599.82,277c0,2.09-.09,14.08-1.72,15.06-4.55,2.73-24.65,9.09-37.19,11.4-58.68,10.83-144,16.93-185.91,16.23-41.92.7-127.23-5.4-185.91-16.23-12.53-2.31-32.63-8.67-37.19-11.4-1.63-1-1.72-13-1.72-15.06s14-30,16.56-30.67,31.56,15.78,80.11,24.52c49.79,9,128.15,9.19,128.15,9.19s78.37-.23,128.15-9.19c48.55-8.74,77.52-23.75,80.12-23S599.82,275,599.82,277Z" style="opacity:0.1"></path><path d="M598.1,292.1c-16.75,8.93-35.37,13.6-54,16.79q-27.89,5.08-56,8.67c-37.52,4.7-75.23,8.49-113.11,8.44-61.45-.52-122.75-8.2-183-19.82A155.1,155.1,0,0,1,151.9,292.1,167.09,167.09,0,0,0,192.37,304c60.45,8.73,121.52,15.76,182.63,16.09,37.59.21,75.17-3.38,112.58-7.09,18.72-2,37.43-4.24,56.07-6.93,9.3-1.37,18.66-2.42,27.75-4.87s18.17-5.11,26.7-9.08Z" style="fill:#fff;opacity:0.5"></path><path d="M177.4,240.81c10.12.94,58.17,30.78,60.19,33.23s6.9,27.13,3.87,29.55-39.34,1.18-50.28-.58-33.54-7.88-38.63-11.8-1.19-31.5,3.81-37C162.78,247.09,170.91,240.21,177.4,240.81Z" style="fill:#fff"></path><path d="M177.4,240.81a32.86,32.86,0,0,1,7.54,2.49c7.3,3.18,14.29,7,21.27,10.84C216.64,260,227.1,265.82,237,272.53a6.08,6.08,0,0,1,2.43,3.63,75.38,75.38,0,0,1,2.09,7.79c1.1,5.31,2.14,10.54,2.12,16-.08,3.1-.6,5.14-4,5.56-8.67,1.27-17.43.8-26.13.64-8-.39-16-.65-24-2.06-11.77-2.43-23.48-5.55-34.46-10.49a13.33,13.33,0,0,1-3.58-2.34c-2.95-4.74-1.89-10.83-1.56-16.09,1.05-7.13,2-14.85,6.12-20.94,5.59-5.7,12.71-13.56,21.28-13.45Zm0,0c-8.16,0-14.4,6.74-19.74,12.15a15.55,15.55,0,0,0-3.86,6.78,69.66,69.66,0,0,0-2.87,15.55,44.18,44.18,0,0,0,.38,11.72c.43,2,1,3.44,2.8,4.29,8.88,4.27,18.68,6.35,28.23,8.61,10.26,2.48,20.81,2.92,31.34,3.31,5.28.2,10.57.32,15.83.25,3.65-.14,7.66.07,11.1-.91,0,.15.25-.35.32-.9.69-5.66-.43-11.55-1.36-17.3a52,52,0,0,0-2.4-9.4c-.16-.46-.66-.73-1.11-1.14-9.63-7-19.83-13.21-30.05-19.32a218.8,218.8,0,0,0-21.09-11.15,32.84,32.84,0,0,0-7.52-2.54Z" style="fill:#dbdbdb"></path><path d="M202.34,277.61c.13,12-14.59,18.53-23.43,10.24-5.86-5.23-5.86-15.27,0-20.47,8.85-8.3,23.57-1.73,23.44,10.23Zm0,0c.07-11.28-14.19-16.75-21.63-8.42a12.49,12.49,0,0,0,0,16.86c7.44,8.34,21.7,2.85,21.63-8.44Z" style="fill:#dbdbdb"></path><path d="M229.22,286.37c.19,10.12-12.54,15.9-20,8.82a12.11,12.11,0,0,1,0-17.64c7.48-7.09,20.22-1.3,20,8.82Zm0,0c0-9.57-11.95-14.07-18.21-7-5.85,6.19-1.55,17,7,17.47a10.55,10.55,0,0,0,11.2-10.46Z" style="fill:#dbdbdb"></path><path d="M173,265.26c-1.55,4.49-3.2,26.36-2.37,29.25a15.92,15.92,0,0,0,2.85,4.47c-9.06-2.46-18-5.48-20.93-7.77-5.09-3.91-1.18-31.49,3.82-37,6.41-7.11,14.56-14,21-13.37,2.28.21,6.53,1.9,11.73,4.43C189.13,245.25,174.53,260.77,173,265.26Z" style="fill:#BA68C8"></path><path d="M173,265.26c-1.55,4.49-3.2,26.36-2.37,29.24a15.81,15.81,0,0,0,2.85,4.48c-9.06-2.46-18-5.48-20.93-7.77-5.09-3.91-1.18-31.49,3.82-37,6.41-7.11,14.56-14,21-13.38,2.28.22,6.53,1.91,11.73,4.44C189.13,245.25,174.53,260.77,173,265.26Z" style="opacity:0.2"></path><path d="M572.6,240.81c-10.11.94-58.16,30.78-60.19,33.23s-6.89,27.13-3.86,29.55,39.34,1.18,50.27-.58,33.55-7.88,38.64-11.8,1.18-31.5-3.82-37C587.22,247.09,579.09,240.21,572.6,240.81Z" style="fill:#fff"></path><path d="M572.6,240.81a33.24,33.24,0,0,0-7.51,2.54A219,219,0,0,0,544,254.5c-10.22,6.11-20.42,12.34-30,19.32-.44.41-.94.68-1.1,1.14a51.24,51.24,0,0,0-2.41,9.4c-.93,5.75-2.05,11.64-1.36,17.3.08.55.36,1,.33.9a5.65,5.65,0,0,0,1.39.35c8.43,1,17,.53,25.54.31,10.52-.39,21.07-.83,31.34-3.31,9.54-2.26,19.34-4.34,28.22-8.61,1.8-.85,2.38-2.33,2.8-4.29a44.18,44.18,0,0,0,.38-11.72,70.22,70.22,0,0,0-2.86-15.55,15.61,15.61,0,0,0-3.87-6.78c-5.33-5.41-11.58-12.15-19.74-12.15Zm0,0c8.58-.11,15.69,7.75,21.29,13.45C598,260.35,599,268.07,600,275.2c.34,5.29,1.39,11.31-1.56,16.09a13.15,13.15,0,0,1-3.57,2.33c-11,4.95-22.7,8.07-34.47,10.5-13.22,2.1-26.6,2.29-40,2.2a70.52,70.52,0,0,1-10.13-.78,6.79,6.79,0,0,1-2.39-.8,3.76,3.76,0,0,1-1.39-2.58c-.71-6.18.76-12.22,1.91-18.21a75.44,75.44,0,0,1,2.1-7.79,6,6,0,0,1,2.43-3.63c9.93-6.71,20.39-12.55,30.82-18.39,7-3.82,14-7.66,21.27-10.84a32.54,32.54,0,0,1,7.54-2.49Z" style="fill:#dbdbdb"></path><path d="M547.67,277.61c-.08,11.29,14.19,16.78,21.63,8.43a12.48,12.48,0,0,0,0-16.85c-7.44-8.33-21.69-2.86-21.62,8.42Zm0,0c-.13-12,14.59-18.53,23.43-10.23,5.85,5.2,5.85,15.24,0,20.47-8.85,8.28-23.56,1.73-23.43-10.24Z" style="fill:#dbdbdb"></path><path d="M520.79,286.37A10.54,10.54,0,0,0,532,296.83c12.86-1.27,12.86-19.64,0-20.91-5.79-.61-11.33,4.56-11.19,10.45Zm0,0c-.2-10.12,12.53-15.91,20-8.82a12.11,12.11,0,0,1,0,17.64c-7.48,7.08-20.21,1.3-20-8.82Z" style="fill:#dbdbdb"></path><path d="M577,265.26c1.55,4.49,3.2,26.36,2.38,29.25a15.76,15.76,0,0,1-2.86,4.47c9.07-2.46,18-5.48,20.93-7.77,5.09-3.91,1.18-31.49-3.82-37-6.41-7.11-14.55-14-21-13.37-2.29.21-6.54,1.9-11.74,4.43C560.87,245.25,575.48,260.77,577,265.26Z" style="fill:#BA68C8"></path><path d="M577,265.26c1.55,4.49,3.2,26.36,2.38,29.24a15.65,15.65,0,0,1-2.86,4.48c9.07-2.46,18-5.48,20.93-7.77,5.09-3.91,1.18-31.49-3.82-37-6.41-7.11-14.55-14-21-13.38-2.29.22-6.54,1.91-11.74,4.44C560.87,245.25,575.48,260.77,577,265.26Z" style="opacity:0.2"></path><path d="M503.15,270.89c.25,1.09-12,27.35-14.18,30.57s-12.82,8.75-15.29,9.24-40.44,8.19-98.68,8.19-96.21-7.7-98.69-8.19-13.06-6-15.28-9.24S246.6,272,246.85,270.89s36.75,6,58.82,6.88c10.86.43,44.89,2.31,69.33,2.31s58.48-1.88,69.33-2.31C466.41,276.91,502.91,269.79,503.15,270.89Z" style="fill:#263238"></path><path d="M270.87,274c5,.71,10.29,1.45,15.57,2.08h-37.6c-.34-.76-.64-1.46-.89-2.08Zm208.26,0c-5,.71-10.29,1.45-15.57,2.08h37.6c.34-.76.64-1.46.89-2.08Zm-81.45,5.7c-7.83.22-15.65.38-22.68.38s-14.85-.16-22.68-.38H250.43l.93,2.06H498.64c.33-.71.64-1.4.94-2.06ZM253,285.38c.32.7.64,1.38,1,2.06H496c.32-.68.65-1.36,1-2.06Zm2.67,5.68c.35.71.69,1.41,1,2.08H493.3l1-2.08Zm2.78,5.68c.38.76.76,1.45,1.07,2.08H490.47c.31-.63.68-1.32,1.07-2.08Zm3.4,5.68a21.09,21.09,0,0,0,2.56,2.08H485.57a20.51,20.51,0,0,0,2.57-2.08Zm8.58,5.7a46.31,46.31,0,0,0,4.32,2.06H475.22a45.16,45.16,0,0,0,4.33-2.06Zm25,5.68c5,.68,10.83,1.39,17.52,2.06H437c6.69-.67,12.55-1.38,17.52-2.06Z" style="fill:#37474f"></path><rect x="326.38" y="336.89" width="97.24" height="25.98" style="fill:#fff"></rect></g><g id="freepik--character-2--inject-17"><path d="M473.5,106.92s-9.67-8.18-19.75-3-9.82,28.48-10.46,35.36-6.14,9.39,1.23,14.58,16.87,5.91,26.26,4.41,16-6.46,16.83-10.82c.53-2.67-1.82-4.88-2.73-9.1C484.34,135.86,486.44,106.73,473.5,106.92Z" style="fill:#263238"></path><path d="M487.43,142.21c-.47-2.87-1.58-5.51-1.91-8.44s-.27-5.75-.37-8.62c-.27-7.36-2.37-18.52-11.85-18a.15.15,0,0,0,0,.29c10.7.19,11.2,13,11.43,21a42.39,42.39,0,0,0,1.39,10.7c1.42,5,1.36,9.43-2.22,13.48a.1.1,0,0,0,.14.13A12.29,12.29,0,0,0,487.43,142.21Z" style="fill:#263238"></path><path d="M471.63,106.87c-5.28-3.4-11.39-6.09-17.63-3.41-5.41,2.31-8.46,7.82-9.7,13.24-1.72,7.56-.44,15.48-2.44,23-.71,2.65-2.8,5.58-2.34,8.45.4,2.55,2.5,3.19,4.81,3.5.12,0,.17-.16,0-.18-5.61-1-4.4-4.87-3-8.65a33.83,33.83,0,0,0,1.91-8.17c.63-5.59.26-11.26,1.31-16.8,1-5.39,3.51-10.91,8.65-13.64,6.43-3.42,12.64-.56,18.31,2.75A.06.06,0,0,0,471.63,106.87Z" style="fill:#263238"></path><path d="M512.92,191.45l-4.45.13-5.37.15-6.07.16-2.93.07-1.8,0h-.39l-1.22,0-4.23.1h0q-1-2-2-4l-.31-.64-.07-.13c-.93-1.93-1.88-3.92-2.83-6-.06-.14-.12-.27-.19-.41l-.22-.46c-.76-1.64-1.54-3.3-2.31-5l-.8-1.73c-1-2.26-2.08-4.56-3.13-6.88l-.5-1.13c-.26-.6-.5-1.18-.73-1.74a41.13,41.13,0,0,1-1.84-5.31c-.12-.44-.22-.85-.29-1.24h0c-.45-2.18-.32-3.6.23-4.4l.11-.15a1.88,1.88,0,0,1,.25-.24l.13-.1a2,2,0,0,1,1-.33c1.52-.15,3.75.85,6.19,2.48a78.42,78.42,0,0,1,10.77,9.14c1.7,1.66,3.41,3.44,5.12,5.3s3.27,3.6,4.88,5.46l.22.26c1.47,1.72,2.92,3.47,4.33,5.22l.21.26c1.31,1.63,2.57,3.26,3.78,4.86C510.05,187.38,511.56,189.47,512.92,191.45Z" style="fill:#BA68C8"></path><path d="M508.47,191.58l-5.37.15-6.07.16-2.93.07-1.8,0h-.39l-1.22,0-4.23.1h0q-1-2-2-4l-.31-.64-.06-.13h0c-.93-1.93-1.88-3.92-2.83-6-.06-.14-.12-.27-.19-.41l-.22-.46c-.76-1.64-1.54-3.3-2.31-5l-.8-1.73c-1-2.26-2.08-4.56-3.13-6.88l-.5-1.13c-.26-.6-.5-1.18-.73-1.74a41.71,41.71,0,0,1-1.78-5.3,13.51,13.51,0,0,1-.3-1.36c-.39-2-.32-3.48.18-4.3l.11-.15a1.13,1.13,0,0,1,.23-.26l0,0,.14.15,8.12,8.62,3.44,3.64,1,1,6.76,7.17.58.62,3,3.17,1.4,1.48.62.66,4.33,4.6.57.6,4.17,4.42Z" style="opacity:0.1"></path><path d="M459.24,158.63c-.05.22-.12.44-.19.68a50.89,50.89,0,0,1-2.42,6.48l-.5,1.13-.07.16-2.82,6.2c-.87,1.88-1.72,3.74-2.58,5.57l-.13.3c-1,2.24-2.08,4.43-3.1,6.57a.08.08,0,0,0,0,0,0,0,0,0,0,0,0h0c-.13.26-.25.52-.37.78s-.15.3-.22.45-.15.3-.22.45c-.87,1.79-1.73,3.54-2.59,5.23l-.14.28h0l-1,0a.06.06,0,0,0,0,0l-.18,0-5.95.09h-.23l-8.42.12h-.76l-4.7.05-1.93,0-4.12,0c8.59-12.93,24.34-31.41,35.08-38.58,2.45-1.64,4.68-2.64,6.19-2.48h0a1.9,1.9,0,0,1,1.08.43l.09.06h0l.15.17.11.15C459.9,154,460,155.78,459.24,158.63Z" style="fill:#BA68C8"></path><path d="M459.21,158.53h0l-.21.78a49.49,49.49,0,0,1-2.37,6.47l-.5,1.13-.07.16-2.82,6.2c-.87,1.88-1.72,3.74-2.58,5.57l-.13.3c-1,2.24-2.08,4.43-3.1,6.57a.08.08,0,0,0,0,0l0,0c-.13.26-.25.52-.37.78h0l-.21.45c-.08.15-.15.3-.22.45-.87,1.79-1.73,3.54-2.59,5.23l-.14.28h0l-1,0a.06.06,0,0,0,0,0l-.18,0-5.95.09h-.23l-8.42.12h-.76l-4.7.05-1.93,0,3.79-4,3.95-4.2.09-.09,0,0,4.74-5,.19-.21,9.05-9.59.95-1,2.16-2.29s0,0,0,0l1.6-1.7,10.85-11.51.69-.73.14-.15,0,0s.06,0,.07.08h0l.15.17.11.15C459.85,154.06,459.85,155.9,459.21,158.53Z" style="opacity:0.1"></path><path d="M494.1,192l-1.8,0h-.39l-1.22,0-4.23.1h0l-2.41,0c-9.8.23-20.24.45-31.19.64L445,193h-1.16l-1,0a.06.06,0,0,0,0,0l-.18,0-5.95.09a14,14,0,0,1-.05-2.18c0-.35.05-.71.1-1.09a24.36,24.36,0,0,1,1.5-5.8l.17-.45c.1-.25.21-.54.34-.85.68-1.7,1.74-4.22,3.08-7.1,1.42-3.09,3.16-6.6,5.08-10l.32-.55c2.95-5.11,6.3-9.83,9.57-12.16.33-.24.67-.46,1-.66l0,0h0a14.86,14.86,0,0,1,6.11-2.23,13.94,13.94,0,0,1,1.43-.1,14.24,14.24,0,0,1,6.53,1.74c.35.19.7.39,1.05.61s.67.42,1,.66c2.69,1.92,5.44,5.46,8,9.51.55.87,1.08,1.77,1.61,2.67.61,1.06,1.2,2.14,1.77,3.22.24.43.46.86.68,1.29,1,2,2,3.95,2.83,5.77a.36.36,0,0,1,0,.09l.41.89c1.1,2.41,2,4.53,2.61,6.06.14.34.27.65.38.93l.25.66a24.21,24.21,0,0,1,1.54,6.15q0,.41.06.78C494.11,191.3,494.11,191.64,494.1,192Z" style="fill:#BA68C8"></path><path d="M472.07,155.43c-.34,1.25-2.69,7.42-8.53,7.42-4.53,0-5.43-9.07-5.43-9.07l-2.19-11.52,14.68-8.63S472.21,154.89,472.07,155.43Z" style="fill:#f7a9a0"></path><path d="M471.15,141.1a22.37,22.37,0,0,1-13.17,12l-2.06-10.88,14.68-8.63S470.85,137,471.15,141.1Z" style="fill:#263238"></path><path d="M443.25,123.86c-3.86,18.81,7,23.24,11.05,24.06,3.69.75,16.35,2.83,22.14-15.48s-1.76-26-10.11-28.2S447.1,105.05,443.25,123.86Z" style="fill:#f7a9a0"></path><path d="M447.88,122a9.8,9.8,0,0,0,1.33-.11,2.12,2.12,0,0,0,1.34-.37.68.68,0,0,0,.1-.83,1.71,1.71,0,0,0-1.62-.6,2.5,2.5,0,0,0-1.67.68A.73.73,0,0,0,447.88,122Z" style="fill:#263238"></path><path d="M461,124.3a11.2,11.2,0,0,1-1.27-.44,2.15,2.15,0,0,1-1.2-.69.68.68,0,0,1,.11-.83,1.71,1.71,0,0,1,1.72-.18,2.53,2.53,0,0,1,1.45,1.07A.74.74,0,0,1,461,124.3Z" style="fill:#263238"></path><path d="M457.63,128.15s.09.08.08.13c-.24,1.3-.29,2.82.82,3.42,0,0,0,.09,0,.07C457.1,131.36,457.2,129.34,457.63,128.15Z" style="fill:#263238"></path><path d="M459,127c2.12.16,1.65,4.37-.31,4.23S457.22,126.84,459,127Z" style="fill:#263238"></path><path d="M459.8,127.29c.34.28.65.74,1.09.83s.95-.29,1.33-.68c0,0,.08,0,.07.06-.08.81-.48,1.6-1.36,1.62s-1.29-.75-1.4-1.58C459.5,127.38,459.66,127.17,459.8,127.29Z" style="fill:#263238"></path><path d="M450.16,126.89s-.11.06-.11.11c-.1,1.31-.42,2.8-1.65,3.11,0,0,0,.07,0,.07C449.87,130.13,450.28,128.15,450.16,126.89Z" style="fill:#263238"></path><path d="M449.13,125.41c-2.09-.37-2.69,3.82-.75,4.17S450.88,125.73,449.13,125.41Z" style="fill:#263238"></path><path d="M448.22,125.56c-.37.18-.75.54-1.15.5s-.74-.53-1-1c0,0-.06,0-.07,0-.13.8,0,1.67.76,1.93s1.3-.37,1.61-1.14C448.44,125.73,448.36,125.49,448.22,125.56Z" style="fill:#263238"></path><path d="M455.79,138.61c-.33.29-.67.69-1.15.7a3.8,3.8,0,0,1-1.39-.42s-.09,0-.06.06a1.79,1.79,0,0,0,1.62.82,1.41,1.41,0,0,0,1.11-1.09C455.94,138.6,455.84,138.57,455.79,138.61Z" style="fill:#263238"></path><path d="M450.91,133.23s-.5,1.91-.62,2.83c0,.09.21.16.52.21,0,0,0,0,0,0a4.41,4.41,0,0,0,4.44-1.11c.08-.08,0-.19-.12-.15a6.66,6.66,0,0,1-4.13.66c0-.27,1-3.25.84-3.28a8.35,8.35,0,0,0-2.15.22c.94-4,2.52-7.85,3.4-11.87a.12.12,0,0,0-.23-.08,66.56,66.56,0,0,0-4.21,12.62C448.55,133.8,450.53,133.34,450.91,133.23Z" style="fill:#263238"></path><path d="M451.44,136a4.61,4.61,0,0,0,1.6,1.72,2.17,2.17,0,0,0,1.24.28c.94-.09,1.1-.92,1.05-1.66a5,5,0,0,0-.23-1.15A6,6,0,0,1,451.44,136Z" style="fill:#263238"></path><path d="M453,137.76a2.17,2.17,0,0,0,1.24.28c.94-.09,1.1-.92,1.05-1.66A2.16,2.16,0,0,0,453,137.76Z" style="fill:#ff9cbd"></path><path d="M475.16,133.47c-3.51.29-4-7.74-4-7.74s-14.73-3.19-15.44-15.34a24.91,24.91,0,0,1-11.78,10.45s2.67-14.86,13.29-17c0,0,11.76-3.56,19.19,7C484,121.73,477.51,133.29,475.16,133.47Z" style="fill:#263238"></path><path d="M455.68,109.49a13.21,13.21,0,0,0,.41,5.55,13.67,13.67,0,0,0,2.58,5,11.84,11.84,0,0,0,.95,1l.5.51c.17.16.36.3.54.45.38.29.74.6,1.12.87l1.21.73c.2.11.4.24.61.35l.64.28,1.28.56c.89.29,1.79.54,2.68.77-.84-.41-1.7-.73-2.51-1.15l-1.21-.65-.59-.33c-.2-.12-.38-.26-.56-.38-.37-.27-.74-.53-1.12-.77s-.68-.59-1-.88l-.51-.44-.46-.49a10.71,10.71,0,0,1-.89-1,15.91,15.91,0,0,1-2.62-4.67,16.72,16.72,0,0,1-.71-2.63A15.42,15.42,0,0,1,455.68,109.49Z" style="fill:#263238"></path><path d="M472.48,131.91s4.86-5.48,7.39-3.68-1.6,10.06-4.91,10.88a3.25,3.25,0,0,1-4.13-2.23Z" style="fill:#f7a9a0"></path><path d="M478.63,130.57c.05,0,.05.08,0,.09-2.34.64-3.75,2.57-4.82,4.61a1.8,1.8,0,0,1,2.73-.18c.05,0,0,.13-.08.11a2,2,0,0,0-2.26.44,9.61,9.61,0,0,0-1.26,1.65c-.12.19-.47,0-.37-.18,0,0,0,0,0-.05C472.88,134.22,475.55,130.5,478.63,130.57Z" style="fill:#263238"></path><path d="M442.8,193a.06.06,0,0,0,0,0l-.18,0Z" style="fill:#263238"></path><path d="M531.4,126.76,527,118s-37.5,44.62-52.28,56.3c-6.42,5.06-26.62,18.7-26.62,18.7l14.67-.16s13.75-7.42,19.11-11.74C495.18,170.33,531.4,126.76,531.4,126.76Z" style="fill:#263238"></path><path d="M497.15,187.63h0a30.22,30.22,0,0,0-1.22-7.41c-.11-.35-.21-.7-.33-1q-.35-1-.78-2.07A29.89,29.89,0,0,0,492.7,173l-.42-.67a30.6,30.6,0,0,0-9.08-9c-.42-.28-.85-.55-1.29-.8-.6-.35-1.21-.67-1.83-1a30,30,0,0,0-8.5-2.72h-.06c-.3-.05-.61-.1-.93-.13a29.93,29.93,0,0,0-3.93-.26,30.44,30.44,0,0,0-7.19.86l-.42.1H459a30.48,30.48,0,0,0-12.1,6.32c-.44.37-.86.75-1.28,1.15,0,0,0,0,0,0-.75.73-1.47,1.49-2.16,2.29-.34.4-.67.8-1,1.22A30.34,30.34,0,0,0,437,181.81l-.18.84a30.38,30.38,0,0,0-.64,6.22c0,.23,0,.45,0,.68,0,.39,0,.77.05,1.16,0,.8.12,1.6.23,2.38h.23l5.95-.09.18,0a.06.06,0,0,1,0,0c0-.24-.08-.48-.11-.72a22.53,22.53,0,0,1-.25-3.41,23.35,23.35,0,0,1,.24-3.37c0-.34.1-.68.16-1a24.25,24.25,0,0,1,2.54-7.16c.29-.52.59-1,.91-1.52a0,0,0,0,1,0,0,23.61,23.61,0,0,1,4-4.81,24.32,24.32,0,0,1,5.72-3.9,24.12,24.12,0,0,1,26.61,3.61c.31.27.61.54.9.83h0a24.26,24.26,0,0,1,3.88,4.91h0l0,.08c.17.29.33.58.49.87a24.28,24.28,0,0,1,2.32,6.23l.18.89h0a24.84,24.84,0,0,1,.39,4.34,23.81,23.81,0,0,1-.21,3.18l1.22,0h.39l1.8,0,2.93-.07a30.08,30.08,0,0,0,.15-3v0C497.18,188.44,497.17,188,497.15,187.63Z" style="fill:#263238"></path><polygon points="467.3 192.45 444.43 174.31 448.33 169.39 467.3 184.43 486.26 169.39 490.17 174.31 467.3 192.45" style="fill:#263238"></polygon><path d="M508.44,185.25a21.68,21.68,0,0,1-2.53,3.61,27.14,27.14,0,0,1-2.81,2.87l-6.07.16-2.93.07-1.8,0a1.43,1.43,0,0,1,.15-.18h0l.17-.18-.29.16-.42.22-1.22,0-4.23.1h0l-2.41,0c-1.09-1.31-.42-2.91.41-4.09a9,9,0,0,1,1.14-1.36l.25-.25-.34.19a15.27,15.27,0,0,1-1.42.65h0c-1.79.69-4.51,1.31-6.16-.41a2.56,2.56,0,0,1-.8-2.26c.26-1.58,2-2.92,2.63-3.4l.27-.19-.57.11c-1.28.21-4.36.46-5.55-1.54-.06-.11-.12-.2-.17-.31h0c-.83-1.93,1.31-3.77,4-5.53,1.63-1.07,3.46-2.1,4.95-3.11a9.4,9.4,0,0,0,2.62-2.36,1.4,1.4,0,0,0,.1-.16l.41-2.38-2.6-2.55-1.29-.8c1.18.81,2.72.69,5.64,1.1.87.12,1.65.22,2.35.35a8.69,8.69,0,0,1,3.63,1.26,3.63,3.63,0,0,1,1.5,4c.22-.08,3.31-1.2,5.31.76,1.06,1.05.33,3.67.33,3.67l.07,0h0l.07,0h0a4.26,4.26,0,0,1,4.22,1.06c1.38,1.53.43,3.92.43,3.92s2.95.3,3.86,2.32C509.8,181.88,509.4,183.47,508.44,185.25Z" style="fill:#f7a9a0"></path><path d="M505.39,178.94a0,0,0,0,1,.08.05,30.72,30.72,0,0,1-13,12.82c-.18.08-.4-.17-.22-.3A62.52,62.52,0,0,0,505.39,178.94Z" style="fill:#263238"></path><path d="M500.76,173.57s.13,0,.09.08a28.71,28.71,0,0,1-15,13.1c-.22.08-.51-.08-.25-.19C489.85,184.71,497.31,178.13,500.76,173.57Z" style="fill:#263238"></path><path d="M479.49,181.08c6.25-2.44,11.08-6.63,15.42-11.66.06-.06.15,0,.12.09-1.46,3-4.56,6-7.17,8a17.67,17.67,0,0,1-8.28,3.78C479.46,181.32,479.36,181.13,479.49,181.08Z" style="fill:#263238"></path><path d="M456,183.41v0c-.62,2.22-3.6,2.82-4.9,3l-.59.05.34.11h0c1.19.43,4.83,2,3.28,4.94a3.34,3.34,0,0,1-1.23,1.32L445,193h-1.16l-1,0a.06.06,0,0,0,0,0l-.18,0-5.95.09h-.23l-8.42.12h-.76l-4.7.05a6,6,0,0,1,2.69-2.23,5.16,5.16,0,0,1-.83-1.77,3.15,3.15,0,0,1,.18-2.12,4.18,4.18,0,0,1,3.76-2.17h.16a.11.11,0,0,1,0,0c-.19-.32-1.34-2.39-.67-3.58,1.43-2.52,4.91-2.19,4.91-2.19a3.6,3.6,0,0,1,.33-4.29c1.08-1.35,2.78-2.07,5.3-3.19,2.69-1.2,4.62-2,5.53-3.08l-1.42,1.5-1.12,2.62.36,2.81.09.08a9.67,9.67,0,0,0,3.56,1.7c1.39.44,3,.84,4.47,1.29l.81.24C453.89,179.85,456.56,181.1,456,183.41Z" style="fill:#f7a9a0"></path><path d="M428,193.21h-.76c-.66-.56-1.28-1.15-1.87-1.76a0,0,0,1,1,.06-.06C426.32,192,427.17,192.64,428,193.21Z" style="fill:#263238"></path><path d="M444,192.7l1,.27h-1.16l-1,0a.06.06,0,0,0,0,0l-.18,0a27.35,27.35,0,0,1-6-2.09l-.41-.2a29.92,29.92,0,0,1-7.84-5.64h0a.06.06,0,0,1,0-.08,0,0,0,0,1,.07,0l0,0a50.67,50.67,0,0,0,7.7,4.57l.56.27a56.4,56.4,0,0,0,6,2.46C443.14,192.44,443.57,192.58,444,192.7Z" style="fill:#263238"></path><path d="M451,186.33c-6.67-.63-12.47-3.33-18-7-.07-.05-.13.06-.08.11,2.23,2.52,6,4.47,9.09,5.73a17.61,17.61,0,0,0,9,1.36C451.05,186.55,451.09,186.35,451,186.33Z" style="fill:#263238"></path></g><g id="freepik--character-1--inject-17"><path d="M277.28,167.1c20.09,13.41,41.81,26.93,50.58,24,7.38-2.45,19.11-8,36.73-19.79,3.26-2.17-16.58-23.79-18.91-22.3-6.08,3.89-25.19,15.07-26.51,14.77-1.74-.38-22.84-6.31-37-9.66C263,149.63,266.89,160.17,277.28,167.1Z" style="fill:#eb9481"></path><path d="M360.49,174c3.34-.72,19.48-5,23.38-7.26s14.63-9.47,13.22-12.62-4.72-1.29-4.72-1.29,4.05-3.77,2.35-6.82-6.77,0-6.77,0,3.88-4.17,2-7.09-6.48,1-6.48,1,3.72-3.65,1.13-5.39c-3.12-2.09-9.22,5.42-13.71,7.56-1,.49-21.34,8.39-21.34,8.39Z" style="fill:#eb9481"></path><path d="M383.82,139.66c-4.5,5.52-7.42,7.15-14.07,9.38a.11.11,0,0,0,.05.21c6.7-1.59,10.67-3.11,14.3-9.38C384.28,139.56,384,139.4,383.82,139.66Z" style="fill:#263238"></path><path d="M388.3,145.62c-5.17,5.32-8.33,7.12-15.12,10-.09,0,0,.21.07.18,6.89-2.23,10.81-3.84,15.28-9.84C388.73,145.65,388.54,145.38,388.3,145.62Z" style="fill:#263238"></path><path d="M392,153c-5.38,4.79-8.75,6.91-15.7,8.83a.13.13,0,0,0,.06.26c7.27-1.26,11.5-3.88,15.77-8.91C392.44,152.83,392.36,152.69,392,153Z" style="fill:#263238"></path><path d="M344.69,149.79s5-7.39,7.92-10.15,17.57-9,19.1-5.95c2,4-5.76,9.28-9.88,11.37,0,0,4.59,9.22-.14,14.22S344.69,149.79,344.69,149.79Z" style="fill:#eb9481"></path><path d="M371.9,135c-.81,4.94-6.41,7.34-10.27,9.68a.41.41,0,0,0-.07.67c1.67,4,2.86,10.11.41,14a.1.1,0,0,0,.17.12c3.19-3.77,2.5-9.87.4-14.13,4-2.33,9.49-5,9.41-10.29C372,134.94,371.9,134.93,371.9,135Z" style="fill:#263238"></path><path d="M341.12,148.84l22.05,27s-26.83,15.07-37.49,16.33c-8,.95-35.95-14.17-50.48-26.12-14.87-12.22-3.74-15.32,6.38-12.44s36.86,9.49,37.54,9.33S341.12,148.84,341.12,148.84Z" style="fill:#455a64"></path><path d="M345.09,166.25q-2.22-2.77-4.47-5.54c-1.49-1.82-2.94-3.74-4.56-5.45-.08-.08-.22,0-.16.1,1.24,1.91,2.71,3.71,4.08,5.54s2.94,3.85,4.42,5.77c2.92,3.8,6,7.47,9.12,11.11.08.09.19,0,.13-.12C350.88,173.8,348.06,170,345.09,166.25Z" style="fill:#263238"></path><path d="M275.19,166.06c10.47,8.59,27.86,18.82,39.78,23.55L278.6,152.94C269.53,151.43,261.79,155,275.19,166.06Z" style="opacity:0.1"></path><path d="M299,192.87c-20.36-.34-39-.78-55.14-1.23.95-2.65,1.94-5.26,3-7.81.09-.22.18-.45.28-.67s.28-.7.43-1A107.31,107.31,0,0,1,255.8,166a59.25,59.25,0,0,1,3.59-5.08,46,46,0,0,1,3.26-3.7l.14-.14.12-.11c.28-.29.57-.56.86-.83a5.33,5.33,0,0,1,1.17-.8,12.46,12.46,0,0,1,3.66-1.1l.26,0H269l.85-.09a23.14,23.14,0,0,1,7.07.47,18.7,18.7,0,0,1,3.42,1.1,14.27,14.27,0,0,1,1.86,1l.34.21a11,11,0,0,1,1,.73,7.68,7.68,0,0,1,.85.77c.23.24.46.49.69.76l.28.33.29.37.45.59c2.89,4,5.69,10.23,8.33,17.68.15.44.31.88.46,1.33h0C296.28,183.65,297.67,188.19,299,192.87Z" style="fill:#455a64"></path><path d="M272.75,158.37a8,8,0,0,1-1.31,3.7c-.06.1-.12.21-.2.32h0q-.28.45-.63.93a24.63,24.63,0,0,1-2.11,2.5l-.37.39-.25.24c-.55.56-1.15,1.13-1.8,1.7-2.62,2.31-6.29,5.29-10.37,8.46l-1.21.94-.71.55-.07,0c-2.15,1.66-4.38,3.35-6.61,5-4,3-8,5.84-11.41,8.25H235l-11.34-.35-.35.2,0-.21-9.45-.31-.6,0c-8.44-.29-15.25-.54-20.07-.73a22.2,22.2,0,0,1,6.13-7.95,90.75,90.75,0,0,1,12.13-8.82l.57-.35q3-1.81,6.12-3.51l1.58-.83c3.25-1.71,6.62-3.31,10-4.79,11-4.75,22.56-8.21,32.39-9.37.25,0,.5-.06.75-.08s.66-.08,1-.11.81-.06,1.2-.08h0a15.27,15.27,0,0,1,3.51.19l.26.05h0l.09,0a3.59,3.59,0,0,1,.47.12C271.74,155.1,272.85,156.47,272.75,158.37Z" style="fill:#455a64"></path><path d="M261,172.16q-2.79,2.25-5.59,4.58l-1,.84-.63.53-.07,0c-2.28,1.9-4.57,3.8-6.89,5.67-3.27,2.64-6.59,5.21-10,7.61l-1.11,0H235c4.29-3,8.51-6.23,12.51-9.29C252.47,178.35,257.06,174.81,261,172.16Z" style="fill:#263238"></path><path d="M253.32,177.86a24.17,24.17,0,0,1,6.08-2.55,16.43,16.43,0,0,1-6.08,2.55Z" style="fill:#263238"></path><path d="M279.5,167.57c-4.41.91-11.73-6-14.54-11.5-.2-.38.49-4.28,1.09-9.07.36-2.9.69-6.14.77-9.12,0-.61,18.56,5.08,18.56,5.08a47.48,47.48,0,0,0-2.14,11.38,8,8,0,0,0,.09,1.23c0,.06,0,.12,0,.2C283.67,158.11,283.76,166.69,279.5,167.57Z" style="fill:#eb9481"></path><path d="M268,138c.72,5.06,3.5,17.32,13.47,17.83a10.79,10.79,0,0,0,1.91,0,.62.62,0,0,0,0-.2,6.87,6.87,0,0,1-.09-1.22,47,47,0,0,1,2.14-11.4S272,138.85,268,138Z" style="fill:#263238"></path><path d="M263.51,115.73c-1.95,6.65,1.78,25.75,6.54,30,6.91,6.11,18.1,6.57,23.26-1.71,5-8-.29-32.83-5.6-36.65C279.89,101.71,266.38,105.9,263.51,115.73Z" style="fill:#eb9481"></path><path d="M263.51,115.73c-1.95,6.65,1.78,25.75,6.54,30,6.91,6.11,18.1,6.57,23.26-1.71,5-8-.29-32.83-5.6-36.65C279.89,101.71,266.38,105.9,263.51,115.73Z" style="fill:#eb9481"></path><path d="M282.46,127.76c0-.05-.09.08-.08.13.26,1.29.34,2.81-.76,3.44,0,0,0,.08,0,.07C283,131,282.91,128.94,282.46,127.76Z" style="fill:#263238"></path><path d="M281.08,126.6c-2.12.19-1.58,4.4.38,4.22S282.85,126.44,281.08,126.6Z" style="fill:#263238"></path><path d="M289.84,127s.11,0,.12.11c.12,1.31.49,2.78,1.72,3.07,0,0,0,.07,0,.07C290.21,130.21,289.75,128.24,289.84,127Z" style="fill:#263238"></path><path d="M290.83,125.47c2.08-.42,2.78,3.76.86,4.16S289.09,125.83,290.83,125.47Z" style="fill:#263238"></path><path d="M278.78,124.63a16.62,16.62,0,0,0,1.7-.37,2.87,2.87,0,0,0,1.66-.71.9.9,0,0,0,0-1.1,2.21,2.21,0,0,0-2.2-.5,3.23,3.23,0,0,0-2,1.17A1,1,0,0,0,278.78,124.63Z" style="fill:#263238"></path><path d="M292.44,123.49a17,17,0,0,1-1.74.13,2.75,2.75,0,0,1-1.79-.2.89.89,0,0,1-.31-1,2.23,2.23,0,0,1,2-1.12,3.29,3.29,0,0,1,2.3.54A1,1,0,0,1,292.44,123.49Z" style="fill:#263238"></path><path d="M282,139.8c.34.28.69.67,1.17.68a3.5,3.5,0,0,0,1.38-.45,0,0,0,0,1,.06.06,1.77,1.77,0,0,1-1.61.85,1.39,1.39,0,0,1-1.12-1.07C281.83,139.79,281.93,139.76,282,139.8Z" style="fill:#263238"></path><path d="M288.31,134.28s.3,2,.32,2.94c0,.09-.23.14-.55.16h0a4.5,4.5,0,0,1-4.39-1.61c-.07-.09.05-.19.14-.14a6.73,6.73,0,0,0,4.12,1.12c.07-.26-.64-3.4-.49-3.42a8.38,8.38,0,0,1,2.16.46c-.52-4.18-1.71-8.25-2.16-12.42a.12.12,0,0,1,.24-.06c1.55,4.17,2.25,9,2.9,13.27C290.65,135.12,288.69,134.44,288.31,134.28Z" style="fill:#263238"></path><path d="M287.47,137.08a4.75,4.75,0,0,1-1.82,1.56,2.09,2.09,0,0,1-1.29.15c-.94-.19-1-1-.88-1.79a5.37,5.37,0,0,1,.36-1.15A6.11,6.11,0,0,0,287.47,137.08Z" style="fill:#263238"></path><path d="M285.65,138.64a2.09,2.09,0,0,1-1.29.15c-.94-.19-1-1-.88-1.79A2.18,2.18,0,0,1,285.65,138.64Z" style="fill:#ff9cbd"></path><path d="M261.92,131c5.12.45,7.9-5.61,6.78-10.55,0,0,13.6,2,14.44-8.88a12.43,12.43,0,0,0,9.36,5.27l1.08,3.62c1.41-.38,2.74-4.1-.62-7.27,0,0-.14-5.46-4.1-8.8a7.46,7.46,0,0,0-8-1.26,11.26,11.26,0,0,0-8.18-2.16,9.58,9.58,0,0,0-7.17,5.09s-6.77,1.18-8,5.95a10,10,0,0,0,1.19,8s-1.72,1.86-.93,6C258.27,128.62,260.39,130.85,261.92,131Z" style="fill:#263238"></path><path d="M282.85,110.57a12.63,12.63,0,0,1,0,2.68,11.2,11.2,0,0,1-.54,2.57,6.9,6.9,0,0,1-3.22,3.87,11.13,11.13,0,0,1-5.05,1.18c-.88-.05-1.77,0-2.66-.12s-1.77-.23-2.67-.32c.87.23,1.75.42,2.63.63s1.8.19,2.7.29a11,11,0,0,0,5.35-1.11,7.23,7.23,0,0,0,3.38-4.27A10.86,10.86,0,0,0,282.85,110.57Z" style="fill:#263238"></path><path d="M289.77,117a14.19,14.19,0,0,1-4.1-2.3,8.63,8.63,0,0,1-1.56-1.69,10.41,10.41,0,0,1-1.11-2.09,5.75,5.75,0,0,0,.69,2.34,6.25,6.25,0,0,0,1.58,1.92,7.63,7.63,0,0,0,2.12,1.26A7.32,7.32,0,0,0,289.77,117Z" style="fill:#263238"></path><path d="M268,131.56s-4.53-6-7.29-4.41.78,10.5,4.12,11.62a3.35,3.35,0,0,0,4.43-2Z" style="fill:#eb9481"></path><path d="M261.83,129.66a0,0,0,0,0,0,.09c2.34.86,3.62,3,4.55,5.16a1.85,1.85,0,0,0-2.79-.41c-.06,0,0,.13.07.12a2.06,2.06,0,0,1,2.29.64,10,10,0,0,1,1.14,1.81c.12.2.49.08.4-.16,0,0,0,0,0,0C267.43,133.91,265,129.86,261.83,129.66Z" style="fill:#263238"></path><path d="M283.38,153.87l-4.65,10.84-13.24-14L261.57,155s12.77,22.15,12.88,21.16l4.67-9.28,6.34,6.65-.19-16.39Z" style="fill:#dbdbdb"></path><path d="M285.83,165.43c-.12-2.71-.17-5.44-.42-8.14,0-.09-.16-.14-.18,0-.6,2.59-.07,12.94-.14,15.41l0,0c-.27-.28-5.89-5.86-5.95-5.77-1,1.46-4.43,8.23-4.67,8.84-2-3.51-9.78-16.31-12.18-19.64a.1.1,0,0,0-.17.09c1.77,3.7,12,20.93,12.2,20.88a105,105,0,0,0,4.89-9.82c.95,1.21,6.6,7.49,6.63,7.09A85,85,0,0,0,285.83,165.43Z" style="fill:#263238"></path><path d="M218.56,126.87l4.34-8.9s37.47,44.62,52.25,56.3c6.41,5.06,26.62,18.7,26.62,18.7l-14.67-.16s-13.76-7.42-19.12-11.74C254.64,170.33,218.56,126.87,218.56,126.87Z" style="fill:#263238"></path><path d="M234.17,184.49a1.14,1.14,0,0,1-.42.51l-1.32.81-.07,0-2.07,1.27c-2.39,1.45-4.58,2.75-6.6,3.93l-.35.2,0-.21-9.45-.31-.6,0c-8.44-.29-15.25-.54-20.07-.73l-.87,0c.06-6.35,2.27-14.1,7.8-18.59.6-.48,5.41-3.23,10.7-6.22l.17-.09,6.28-3.53h0l1.22-.68,6.21-3.44c1.33-.73,3.26,2.16,5,6.33C232.85,170.87,235.55,181.76,234.17,184.49Z" style="fill:#eb9481"></path><path d="M215.59,165.2s4.29-10,8.18-14.63A38.53,38.53,0,0,1,239,140.15c6.31-2.39,23.2-3.8,24.46,1,1.13,4.34-16.21,4.91-16.21,4.91s17.59-3.5,18,2-19.77,5-19.77,5,18.15-3.19,17.68,2.53c-.36,4.32-18.65,4.91-18.65,4.91s15.62-2.64,15.44,1.82c-.2,4.93-17,6.53-17,6.53-2.36,11.26-8.08,15.65-12.53,18.3C229.3,187.76,215.59,165.2,215.59,165.2Z" style="fill:#eb9481"></path><path d="M241.1,146.88c2.05-.49,4.12-1,6.21-1.3s4.19-.53,6.29-.63a35.42,35.42,0,0,1,8.24.37c-4.89-.43-12.38.54-14.47.84s-4.18.5-6.26.8A0,0,0,0,1,241.1,146.88Z" style="fill:#263238"></path><path d="M242.05,154.43c2.65-.5,5.26-1.1,7.93-1.49s5.21-.53,7.88-.73c.21,0,.15.1-.06.12-2.66.31-5.1.81-7.77,1.15s-5.33.58-8,1A0,0,0,0,1,242.05,154.43Z" style="fill:#263238"></path><path d="M241.7,161.07A59.8,59.8,0,0,1,254,159.7c.21,0,.11.14-.09.16-4.1.37-7.31.64-12.16,1.35C241.66,161.22,241.62,161.09,241.7,161.07Z" style="fill:#263238"></path><path d="M223.31,191l-9.45-.31-.6,0c-8.44-.29-15.25-.54-20.07-.73l-.87,0-.67,0a26.22,26.22,0,0,1,8.43-19.4l17.62-14.67.58,3.63.22,1.36,1.22,7.68.72,4.5Z" style="fill:#455a64"></path><path d="M213.86,190.73l-.6,0c-.27-2.19-.5-4.4-.73-6.61-.38-3.62-.76-7.26-1.08-10.89-.06-.58-.11-1.17-.16-1.76-.17-2.1-.35-4.2-.47-6.31,0-.29,0-.58,0-.87,0-.06.09-.09.1,0l.12.81c.4,2.59.73,5.2,1,7.81.16,1.32.3,2.63.45,3.94q.71,6.31,1.28,12.65C213.79,189.88,213.83,190.3,213.86,190.73Z" style="fill:#263238"></path><path d="M223.31,191h.38l-.35.2Z" style="fill:#263238"></path></g></svg>
